<svg xmlns="http://www.w3.org/2000/svg" xmlns:xlink="http://www.w3.org/1999/xlink" width="500" zoomAndPan="magnify" viewBox="0 0 375 374.999991" height="500" preserveAspectRatio="xMidYMid meet" version="1.0"><defs><clipPath id="a2b0468934"><path d="M 172 239 L 245.996094 239 L 245.996094 375 L 172 375 Z M 172 239 " clip-rule="nonzero"/></clipPath><clipPath id="58acb4c8fc"><path d="M 7.03125 183 L 145 183 L 145 249 L 7.03125 249 Z M 7.03125 183 " clip-rule="nonzero"/></clipPath><clipPath id="6276bc1ff9"><path d="M 231.128906 142.191406 L 367.78125 142.191406 L 367.78125 207 L 231.128906 207 Z M 231.128906 142.191406 " clip-rule="nonzero"/></clipPath></defs><path fill="#fcc309" d="M 176.234375 140.152344 C 177.890625 139.144531 180.746094 139.753906 182.976562 140.097656 C 191.183594 141.351562 194.148438 137.214844 196.203125 129.742188 C 198.832031 120.191406 199.460938 110.339844 201.917969 100.816406 C 210.273438 68.359375 200.929688 39.140625 185.003906 11.355469 C 179.664062 2.039062 169.953125 0.0234375 160.191406 0.65625 C 150.605469 1.273438 144.214844 7.109375 140.90625 16.164062 C 137.082031 26.636719 135.339844 37.433594 135.773438 47.855469 C 135.582031 56.988281 135.890625 65.394531 138.601562 73.410156 C 145.058594 92.445312 151.816406 111.378906 158.371094 130.371094 C 161.382812 139.089844 164.3125 147.421875 176.234375 140.152344 " fill-opacity="1" fill-rule="nonzero"/><path fill="#fcc309" d="M 217.523438 153.613281 C 218.40625 154.839844 219.839844 155.726562 220.546875 157.019531 C 223.226562 161.902344 226.296875 161.15625 230.933594 159.253906 C 250.128906 151.371094 267.449219 140.433594 283.382812 127.398438 C 297.796875 115.59375 309.347656 101.691406 310.246094 82.289062 C 307.746094 63.679688 297.773438 44.941406 277.511719 55.832031 C 265.800781 62.117188 253.859375 68.519531 245.480469 79.195312 C 234.460938 93.226562 223.945312 107.667969 213.636719 122.230469 C 209.460938 128.128906 206.300781 135.066406 205.992188 142.285156 C 205.691406 149.230469 214.273438 149.121094 217.523438 153.613281 " fill-opacity="1" fill-rule="nonzero"/><g clip-path="url(#a2b0468934)"><path fill="#fcc309" d="M 201.472656 239.632812 C 197.921875 240.746094 193.960938 241.046875 190.207031 240.921875 C 184.1875 240.710938 181.179688 243.515625 179.605469 249.046875 C 175.742188 262.625 171.957031 276.1875 172.367188 290.53125 C 173.570312 313.644531 173.167969 336.933594 180.289062 359.464844 C 182.472656 366.367188 186.164062 370.171875 193.042969 372.34375 C 224.199219 382.164062 249.234375 364.308594 244.792969 334.785156 C 239.921875 302.4375 225.125 273.585938 211.769531 244.273438 C 209.929688 240.242188 206.660156 238 201.472656 239.632812 " fill-opacity="1" fill-rule="nonzero"/></g><path fill="#f7931e" d="M 194.761719 155.003906 C 185.648438 152.167969 175.78125 149.785156 168.191406 158.25 C 157.351562 170.335938 151.074219 184.75 154.074219 201.039062 C 156.722656 215.460938 163.117188 227.246094 180.621094 229.621094 C 207.632812 233.273438 225.011719 223.011719 225.535156 197.601562 C 225.386719 179.53125 211.835938 160.316406 194.761719 155.003906 " fill-opacity="1" fill-rule="nonzero"/><path fill="#fcc309" d="M 140.078125 233.578125 C 109.566406 256.648438 89.183594 287.617188 72.878906 321.582031 C 71.492188 324.464844 69.855469 327.710938 73.574219 330.832031 C 81.058594 337.121094 89.296875 341.523438 99.503906 342.988281 C 107.570312 341.871094 113.601562 336.699219 118.851562 330.515625 C 140.601562 304.914062 152.804688 273.945312 167.164062 244.195312 C 168.261719 241.941406 168.359375 240.304688 166.703125 238.050781 C 158.316406 226.640625 151.382812 225.023438 140.078125 233.578125 " fill-opacity="1" fill-rule="nonzero"/><g clip-path="url(#58acb4c8fc)"><path fill="#fcc309" d="M 144.429688 202.386719 C 143.941406 197.253906 142.195312 193.878906 136.84375 192.472656 C 118.355469 187.597656 99.628906 184.46875 77.65625 183.667969 C 57.703125 184.296875 36.144531 190.128906 15.363281 199.085938 C 11.355469 200.820312 7.171875 202.679688 7.320312 208.671875 C 7.957031 235.46875 26.183594 251.164062 52.972656 248.332031 C 85.53125 244.894531 111.796875 226.351562 140.171875 212.832031 C 144.996094 210.539062 144.855469 206.847656 144.429688 202.386719 " fill-opacity="1" fill-rule="nonzero"/></g><path fill="#fcc309" d="M 146.050781 174.585938 C 155.660156 163.992188 155.53125 151.492188 147.722656 139.296875 C 135.84375 120.726562 118.449219 108.59375 100.582031 97.277344 C 89.882812 90.503906 78.445312 83.886719 67.890625 82.839844 C 45.839844 83.277344 37.125 97.980469 45.972656 114.792969 C 50.875 124.113281 58.027344 131.371094 66.125 137.75 C 87.925781 154.941406 113.960938 163.925781 138.921875 174.976562 C 141.191406 175.976562 143.476562 177.417969 146.050781 174.585938 " fill-opacity="1" fill-rule="nonzero"/><path fill="#fcc309" d="M 231.476562 216.375 C 222.015625 227.789062 221.878906 234.375 232.632812 244.605469 C 244.433594 255.832031 256.136719 267.28125 268.914062 277.324219 C 281.976562 287.605469 295.808594 297.207031 312.078125 302.117188 C 320.523438 304.667969 337.214844 294.269531 337.65625 286.511719 C 337.835938 283.378906 334.175781 277.714844 330.070312 272.828125 C 305.957031 244.078125 272.019531 230.9375 239.515625 215.519531 C 236.921875 214.292969 234.273438 213.003906 231.476562 216.375 " fill-opacity="1" fill-rule="nonzero"/><g clip-path="url(#6276bc1ff9)"><path fill="#fcc309" d="M 336.816406 142.515625 C 306.519531 143.585938 277.417969 149.992188 249.539062 161.929688 C 243.640625 164.460938 236.144531 165.066406 232.375 170.253906 C 228.796875 175.183594 234.695312 180.835938 234.722656 186.445312 C 234.726562 187.582031 235.117188 188.734375 235.007812 189.851562 C 234.449219 195.519531 237.464844 197.652344 242.605469 198.96875 C 261.480469 203.8125 280.640625 206.183594 295.46875 206.890625 C 322.089844 206.148438 343.285156 203.144531 360.472656 187.316406 C 364.582031 183.527344 367.421875 179.753906 367.738281 173.824219 C 368.839844 153.128906 357.777344 141.78125 336.816406 142.515625 " fill-opacity="1" fill-rule="nonzero"/></g></svg>