<svg xmlns="http://www.w3.org/2000/svg" xmlns:xlink="http://www.w3.org/1999/xlink" width="500" zoomAndPan="magnify" viewBox="0 0 375 374.999991" height="500" preserveAspectRatio="xMidYMid meet" version="1.0"><defs><clipPath id="9bc3212c14"><path d="M 172 239 L 245.871094 239 L 245.871094 375 L 172 375 Z M 172 239 " clip-rule="nonzero"/></clipPath><clipPath id="74e89fb470"><path d="M 7.03125 183 L 145 183 L 145 249 L 7.03125 249 Z M 7.03125 183 " clip-rule="nonzero"/></clipPath><clipPath id="7174f1a9eb"><path d="M 231.011719 142.191406 L 367.628906 142.191406 L 367.628906 207 L 231.011719 207 Z M 231.011719 142.191406 " clip-rule="nonzero"/></clipPath></defs><path fill="#fad658" d="M 176.144531 140.152344 C 177.800781 139.144531 180.652344 139.753906 182.882812 140.097656 C 191.085938 141.351562 194.050781 137.214844 196.105469 129.742188 C 198.730469 120.191406 199.363281 110.339844 201.816406 100.816406 C 210.167969 68.359375 200.828125 39.140625 184.914062 11.355469 C 179.574219 2.039062 169.867188 0.0234375 160.109375 0.65625 C 150.53125 1.273438 144.144531 7.109375 140.835938 16.164062 C 137.011719 26.636719 135.273438 37.433594 135.703125 47.855469 C 135.515625 56.988281 135.824219 65.394531 138.535156 73.410156 C 144.988281 92.445312 151.742188 111.378906 158.292969 130.371094 C 161.300781 139.089844 164.230469 147.421875 176.144531 140.152344 " fill-opacity="1" fill-rule="nonzero"/><path fill="#fad658" d="M 217.414062 153.613281 C 218.296875 154.839844 219.726562 155.726562 220.4375 157.019531 C 223.113281 161.902344 226.183594 161.15625 230.820312 159.253906 C 250.003906 151.371094 267.3125 140.433594 283.238281 127.398438 C 297.644531 115.59375 309.1875 101.691406 310.085938 82.289062 C 307.589844 63.679688 297.621094 44.941406 277.371094 55.832031 C 265.667969 62.117188 253.734375 68.519531 245.359375 79.195312 C 234.34375 93.226562 223.835938 107.667969 213.527344 122.230469 C 209.355469 128.128906 206.195312 135.066406 205.886719 142.285156 C 205.589844 149.230469 214.164062 149.121094 217.414062 153.613281 " fill-opacity="1" fill-rule="nonzero"/><g clip-path="url(#9bc3212c14)"><path fill="#fad658" d="M 201.371094 239.632812 C 197.820312 240.746094 193.863281 241.046875 190.109375 240.921875 C 184.097656 240.710938 181.089844 243.515625 179.515625 249.046875 C 175.65625 262.625 171.871094 276.1875 172.28125 290.53125 C 173.484375 313.644531 173.082031 336.933594 180.199219 359.464844 C 182.382812 366.367188 186.070312 370.171875 192.945312 372.34375 C 224.085938 382.164062 249.109375 364.308594 244.671875 334.785156 C 239.800781 302.4375 225.011719 273.585938 211.660156 244.273438 C 209.824219 240.242188 206.558594 238 201.371094 239.632812 " fill-opacity="1" fill-rule="nonzero"/></g><path fill="#f7931e" d="M 194.664062 155.003906 C 185.554688 152.167969 175.695312 149.785156 168.105469 158.25 C 157.273438 170.335938 151 184.75 153.996094 201.039062 C 156.644531 215.460938 163.035156 227.246094 180.53125 229.621094 C 207.527344 233.273438 224.898438 223.011719 225.417969 197.601562 C 225.273438 179.53125 211.730469 160.316406 194.664062 155.003906 " fill-opacity="1" fill-rule="nonzero"/><path fill="#fad658" d="M 140.011719 233.578125 C 109.511719 256.648438 89.144531 287.617188 72.84375 321.582031 C 71.457031 324.464844 69.824219 327.710938 73.539062 330.832031 C 81.023438 337.121094 89.257812 341.523438 99.457031 342.988281 C 107.515625 341.871094 113.546875 336.699219 118.792969 330.515625 C 140.53125 304.914062 152.730469 273.945312 167.082031 244.195312 C 168.175781 241.941406 168.277344 240.304688 166.617188 238.050781 C 158.238281 226.640625 151.308594 225.023438 140.011719 233.578125 " fill-opacity="1" fill-rule="nonzero"/><g clip-path="url(#74e89fb470)"><path fill="#fad658" d="M 144.359375 202.386719 C 143.867188 197.253906 142.125 193.878906 136.773438 192.472656 C 118.300781 187.597656 99.582031 184.46875 77.617188 183.667969 C 57.675781 184.296875 36.128906 190.128906 15.359375 199.085938 C 11.351562 200.820312 7.171875 202.679688 7.320312 208.671875 C 7.957031 235.46875 26.175781 251.164062 52.949219 248.332031 C 85.492188 244.894531 111.742188 226.351562 140.105469 212.832031 C 144.925781 210.539062 144.785156 206.847656 144.359375 202.386719 " fill-opacity="1" fill-rule="nonzero"/></g><path fill="#fad658" d="M 145.976562 174.585938 C 155.582031 163.992188 155.453125 151.492188 147.652344 139.296875 C 135.777344 120.726562 118.390625 108.59375 100.53125 97.277344 C 89.839844 90.503906 78.40625 83.886719 67.859375 82.839844 C 45.820312 83.277344 37.109375 97.980469 45.953125 114.792969 C 50.851562 124.113281 58 131.371094 66.09375 137.75 C 87.882812 154.941406 113.90625 163.925781 138.855469 174.976562 C 141.121094 175.976562 143.40625 177.417969 145.976562 174.585938 " fill-opacity="1" fill-rule="nonzero"/><path fill="#fad658" d="M 231.359375 216.375 C 221.902344 227.789062 221.769531 234.375 232.515625 244.605469 C 244.308594 255.832031 256.007812 267.28125 268.777344 277.324219 C 281.835938 287.605469 295.660156 297.207031 311.921875 302.117188 C 320.359375 304.667969 337.042969 294.269531 337.484375 286.511719 C 337.664062 283.378906 334.003906 277.714844 329.902344 272.828125 C 305.800781 244.078125 271.882812 230.9375 239.394531 215.519531 C 236.804688 214.292969 234.15625 213.003906 231.359375 216.375 " fill-opacity="1" fill-rule="nonzero"/><g clip-path="url(#7174f1a9eb)"><path fill="#fad658" d="M 336.648438 142.515625 C 306.363281 143.585938 277.277344 149.992188 249.414062 161.929688 C 243.519531 164.460938 236.023438 165.066406 232.257812 170.253906 C 228.683594 175.183594 234.578125 180.835938 234.605469 186.445312 C 234.609375 187.582031 235 188.734375 234.890625 189.851562 C 234.332031 195.519531 237.34375 197.652344 242.484375 198.96875 C 261.347656 203.8125 280.496094 206.183594 295.316406 206.890625 C 321.925781 206.148438 343.109375 203.144531 360.289062 187.316406 C 364.394531 183.527344 367.234375 179.753906 367.550781 173.824219 C 368.652344 153.128906 357.597656 141.78125 336.648438 142.515625 " fill-opacity="1" fill-rule="nonzero"/></g></svg>