<svg xmlns="http://www.w3.org/2000/svg" xmlns:xlink="http://www.w3.org/1999/xlink" width="2000" zoomAndPan="magnify" viewBox="0 0 1500 1499.999933" height="2000" preserveAspectRatio="xMidYMid meet" version="1.0"><defs><clipPath id="af3e32950c"><path d="M 522 133 L 993 133 L 993 766 L 522 766 Z M 522 133 " clip-rule="nonzero"/></clipPath><clipPath id="ad5eff85f1"><path d="M -121.476562 551.0625 L 1059.957031 -35.996094 L 1621.316406 1093.71875 L 439.886719 1680.777344 Z M -121.476562 551.0625 " clip-rule="nonzero"/></clipPath><clipPath id="a188aa49ba"><path d="M -121.476562 551.0625 L 1059.957031 -35.996094 L 1621.316406 1093.71875 L 439.886719 1680.777344 Z M -121.476562 551.0625 " clip-rule="nonzero"/></clipPath><clipPath id="156746b96f"><path d="M 568 249 L 992 249 L 992 766 L 568 766 Z M 568 249 " clip-rule="nonzero"/></clipPath><clipPath id="7738252a63"><path d="M -121.476562 551.0625 L 1059.957031 -35.996094 L 1621.316406 1093.71875 L 439.886719 1680.777344 Z M -121.476562 551.0625 " clip-rule="nonzero"/></clipPath><clipPath id="5b45386065"><path d="M -121.476562 551.0625 L 1059.957031 -35.996094 L 1621.316406 1093.71875 L 439.886719 1680.777344 Z M -121.476562 551.0625 " clip-rule="nonzero"/></clipPath><clipPath id="c1f8ba6f78"><path d="M 175 805 L 739 805 L 739 1314 L 175 1314 Z M 175 805 " clip-rule="nonzero"/></clipPath><clipPath id="8d6312602e"><path d="M -121.476562 551.0625 L 1059.957031 -35.996094 L 1621.316406 1093.71875 L 439.886719 1680.777344 Z M -121.476562 551.0625 " clip-rule="nonzero"/></clipPath><clipPath id="7417ff0256"><path d="M -121.476562 551.0625 L 1059.957031 -35.996094 L 1621.316406 1093.71875 L 439.886719 1680.777344 Z M -121.476562 551.0625 " clip-rule="nonzero"/></clipPath><clipPath id="fcc35967ca"><path d="M 294 805 L 739 805 L 739 1240 L 294 1240 Z M 294 805 " clip-rule="nonzero"/></clipPath><clipPath id="1f3b28f448"><path d="M -121.476562 551.0625 L 1059.957031 -35.996094 L 1621.316406 1093.71875 L 439.886719 1680.777344 Z M -121.476562 551.0625 " clip-rule="nonzero"/></clipPath><clipPath id="2a1d974089"><path d="M -121.476562 551.0625 L 1059.957031 -35.996094 L 1621.316406 1093.71875 L 439.886719 1680.777344 Z M -121.476562 551.0625 " clip-rule="nonzero"/></clipPath><clipPath id="2867336b83"><path d="M 655 818 L 1130 818 L 1130 1427 L 655 1427 Z M 655 818 " clip-rule="nonzero"/></clipPath><clipPath id="62208572be"><path d="M -121.476562 551.0625 L 1059.957031 -35.996094 L 1621.316406 1093.71875 L 439.886719 1680.777344 Z M -121.476562 551.0625 " clip-rule="nonzero"/></clipPath><clipPath id="0903519827"><path d="M -121.476562 551.0625 L 1059.957031 -35.996094 L 1621.316406 1093.71875 L 439.886719 1680.777344 Z M -121.476562 551.0625 " clip-rule="nonzero"/></clipPath><clipPath id="1cfa0fa04d"><path d="M 655 819 L 1014 819 L 1014 1298 L 655 1298 Z M 655 819 " clip-rule="nonzero"/></clipPath><clipPath id="c4443b0f92"><path d="M -121.476562 551.0625 L 1059.957031 -35.996094 L 1621.316406 1093.71875 L 439.886719 1680.777344 Z M -121.476562 551.0625 " clip-rule="nonzero"/></clipPath><clipPath id="79c57e5f6e"><path d="M -121.476562 551.0625 L 1059.957031 -35.996094 L 1621.316406 1093.71875 L 439.886719 1680.777344 Z M -121.476562 551.0625 " clip-rule="nonzero"/></clipPath><clipPath id="fba90859d8"><path d="M 768 452 L 1385 452 L 1385 931 L 768 931 Z M 768 452 " clip-rule="nonzero"/></clipPath><clipPath id="84f713c5ef"><path d="M -121.476562 551.0625 L 1059.957031 -35.996094 L 1621.316406 1093.71875 L 439.886719 1680.777344 Z M -121.476562 551.0625 " clip-rule="nonzero"/></clipPath><clipPath id="57097603cd"><path d="M -121.476562 551.0625 L 1059.957031 -35.996094 L 1621.316406 1093.71875 L 439.886719 1680.777344 Z M -121.476562 551.0625 " clip-rule="nonzero"/></clipPath><clipPath id="b95c76b5cc"><path d="M 768 474 L 1274 474 L 1274 923 L 768 923 Z M 768 474 " clip-rule="nonzero"/></clipPath><clipPath id="9ccf0830f2"><path d="M -121.476562 551.0625 L 1059.957031 -35.996094 L 1621.316406 1093.71875 L 439.886719 1680.777344 Z M -121.476562 551.0625 " clip-rule="nonzero"/></clipPath><clipPath id="ecb54859c3"><path d="M -121.476562 551.0625 L 1059.957031 -35.996094 L 1621.316406 1093.71875 L 439.886719 1680.777344 Z M -121.476562 551.0625 " clip-rule="nonzero"/></clipPath><clipPath id="374c0f5302"><path d="M 127 377 L 724 377 L 724 856 L 127 856 Z M 127 377 " clip-rule="nonzero"/></clipPath><clipPath id="9c2095b27a"><path d="M -121.476562 551.0625 L 1059.957031 -35.996094 L 1621.316406 1093.71875 L 439.886719 1680.777344 Z M -121.476562 551.0625 " clip-rule="nonzero"/></clipPath><clipPath id="7c369ecd80"><path d="M -121.476562 551.0625 L 1059.957031 -35.996094 L 1621.316406 1093.71875 L 439.886719 1680.777344 Z M -121.476562 551.0625 " clip-rule="nonzero"/></clipPath><clipPath id="1341fe1df9"><path d="M 261 513 L 724 513 L 724 856 L 261 856 Z M 261 513 " clip-rule="nonzero"/></clipPath><clipPath id="5f474c4be9"><path d="M -121.476562 551.0625 L 1059.957031 -35.996094 L 1621.316406 1093.71875 L 439.886719 1680.777344 Z M -121.476562 551.0625 " clip-rule="nonzero"/></clipPath><clipPath id="8628a15364"><path d="M -121.476562 551.0625 L 1059.957031 -35.996094 L 1621.316406 1093.71875 L 439.886719 1680.777344 Z M -121.476562 551.0625 " clip-rule="nonzero"/></clipPath><clipPath id="3aa776bd59"><path d="M 621 658 L 881 658 L 881 925 L 621 925 Z M 621 658 " clip-rule="nonzero"/></clipPath><clipPath id="23a828ffc5"><path d="M -121.476562 551.0625 L 1059.957031 -35.996094 L 1621.316406 1093.71875 L 439.886719 1680.777344 Z M -121.476562 551.0625 " clip-rule="nonzero"/></clipPath><clipPath id="ae5d44dc5b"><path d="M -121.476562 551.0625 L 1059.957031 -35.996094 L 1621.316406 1093.71875 L 439.886719 1680.777344 Z M -121.476562 551.0625 " clip-rule="nonzero"/></clipPath></defs><g clip-path="url(#af3e32950c)"><g clip-path="url(#ad5eff85f1)"><g clip-path="url(#a188aa49ba)"><path fill="#afb5fd" d="M 722.273438 746.324219 C 683.269531 718.988281 634.394531 664.0625 599.796875 613.109375 C 565.199219 562.160156 544.886719 515.183594 533.476562 471.609375 C 522.066406 428.039062 519.5625 387.871094 527.527344 343.75 C 535.496094 299.632812 553.933594 251.566406 596.546875 209.605469 C 639.164062 167.648438 705.953125 131.796875 772 133.421875 C 838.046875 135.050781 903.347656 174.152344 941.902344 223.550781 C 980.460938 272.953125 992.277344 332.648438 992.789062 384.550781 C 993.300781 436.457031 982.503906 480.570312 951.746094 544.042969 C 920.988281 607.511719 870.269531 690.335938 830.34375 731.871094 C 790.417969 773.410156 761.28125 773.664062 722.273438 746.324219 Z M 722.273438 746.324219 " fill-opacity="1" fill-rule="evenodd"/></g></g></g><g clip-path="url(#156746b96f)"><g clip-path="url(#7738252a63)"><g clip-path="url(#5b45386065)"><path fill="#a1a6e6" d="M 722.273438 746.324219 C 683.269531 718.988281 634.394531 664.0625 599.796875 613.109375 C 587.796875 595.441406 577.519531 578.246094 568.734375 561.511719 C 574.277344 568.875 579.683594 575.96875 584.886719 582.640625 C 629.234375 639.539062 658.667969 665.972656 686.242188 695.183594 C 706.699219 716.859375 726.132812 740.066406 740.050781 757.132812 C 734.316406 754.25 728.417969 750.628906 722.273438 746.324219 Z M 991.75 413.996094 C 988.371094 454.25 976.554688 492.847656 951.746094 544.042969 C 920.988281 607.511719 870.269531 690.335938 830.34375 731.875 C 824.242188 738.21875 818.394531 743.597656 812.722656 748.066406 C 824.921875 725.886719 841.582031 696.574219 861.855469 664.054688 C 892.503906 614.902344 931.402344 558.441406 960.179688 493.976562 C 972.195312 467.0625 982.445312 438.757812 991.75 413.996094 Z M 785.078125 763.132812 C 777.113281 765.40625 769.269531 765.792969 761.296875 764.441406 C 760.113281 754.851562 757.9375 740.570312 754.832031 720.195312 C 744.4375 652.015625 723.652344 515.65625 717.808594 424.285156 C 711.964844 332.914062 721.066406 286.539062 730.425781 262.925781 C 739.785156 239.320312 749.402344 238.480469 758.777344 331.269531 C 768.15625 424.054688 777.292969 610.46875 781.863281 703.675781 C 783.191406 730.796875 784.132812 750.011719 785.078125 763.132812 Z M 785.078125 763.132812 " fill-opacity="1" fill-rule="evenodd"/></g></g></g><g clip-path="url(#c1f8ba6f78)"><g clip-path="url(#8d6312602e)"><g clip-path="url(#7417ff0256)"><path fill="#afb5fd" d="M 682.914062 824.839844 C 637.671875 809.941406 564.417969 803.640625 502.890625 806.40625 C 441.367188 809.167969 391.574219 820.996094 349.832031 837.921875 C 308.09375 854.851562 274.410156 876.875 243.824219 909.65625 C 213.242188 942.433594 185.757812 985.96875 177.632812 1045.21875 C 169.507812 1104.464844 180.746094 1179.4375 221.5625 1231.382812 C 262.378906 1283.332031 332.78125 1312.257812 395.433594 1313.597656 C 458.085938 1314.9375 512.988281 1288.691406 554.882812 1258.042969 C 596.777344 1227.398438 625.667969 1192.355469 658.121094 1129.738281 C 690.574219 1067.117188 726.59375 976.921875 735.988281 920.078125 C 745.382812 863.234375 728.15625 839.738281 682.914062 824.839844 Z M 682.914062 824.839844 " fill-opacity="1" fill-rule="evenodd"/></g></g></g><g clip-path="url(#fcc35967ca)"><g clip-path="url(#1f3b28f448)"><g clip-path="url(#2a1d974089)"><path fill="#a1a6e6" d="M 682.914062 824.839844 C 637.671875 809.941406 564.417969 803.640625 502.890625 806.40625 C 481.554688 807.363281 461.628906 809.414062 442.960938 812.386719 C 452.179688 812.425781 461.097656 812.511719 469.554688 812.6875 C 541.683594 814.175781 580.472656 821.949219 620.375 826.566406 C 649.984375 829.992188 680.207031 831.675781 702.207031 832.617188 C 696.464844 829.746094 690.035156 827.1875 682.914062 824.839844 Z M 577.851562 1239.597656 C 608.085938 1212.808594 631.945312 1180.242188 658.121094 1129.738281 C 690.574219 1067.117188 726.59375 976.921875 735.988281 920.078125 C 737.425781 911.394531 738.234375 903.488281 738.421875 896.273438 C 727.949219 919.316406 714.429688 950.203125 700.5 985.90625 C 679.453125 1039.871094 657.484375 1104.820312 623.050781 1166.449219 C 608.675781 1192.179688 592.128906 1217.324219 577.851562 1239.597656 Z M 733.953125 865.105469 C 731.011719 857.367188 726.628906 850.851562 720.777344 845.269531 C 712.382812 850.058594 699.640625 856.859375 681.453125 866.5625 C 620.605469 899.023438 498.90625 963.953125 422.199219 1013.9375 C 345.492188 1063.921875 313.773438 1098.960938 300.457031 1120.585938 C 287.140625 1142.210938 292.222656 1150.417969 372.179688 1102.417969 C 452.136719 1054.417969 606.972656 950.207031 684.390625 898.101562 C 706.914062 882.941406 722.875 872.199219 733.953125 865.105469 Z M 733.953125 865.105469 " fill-opacity="1" fill-rule="evenodd"/></g></g></g><g clip-path="url(#2867336b83)"><g clip-path="url(#62208572be)"><g clip-path="url(#0903519827)"><path fill="#afb5fd" d="M 806.246094 823.570312 C 852.207031 836.074219 916.804688 871.195312 966.617188 907.410156 C 1016.429688 943.625 1051.457031 980.941406 1076.957031 1018.070312 C 1102.453125 1055.203125 1118.417969 1092.144531 1125.871094 1136.351562 C 1133.320312 1180.558594 1132.261719 1232.03125 1106.382812 1285.949219 C 1080.503906 1339.863281 1029.808594 1396.222656 967.117188 1417.070312 C 904.429688 1437.917969 829.742188 1423.25 776.726562 1389.835938 C 723.710938 1356.421875 692.371094 1304.261719 674.304688 1255.597656 C 656.238281 1206.9375 651.449219 1161.773438 658.882812 1091.636719 C 666.316406 1021.5 685.976562 926.390625 709.46875 873.78125 C 732.960938 821.171875 760.289062 811.066406 806.246094 823.570312 Z M 806.246094 823.570312 " fill-opacity="1" fill-rule="evenodd"/></g></g></g><g clip-path="url(#1cfa0fa04d)"><g clip-path="url(#c4443b0f92)"><g clip-path="url(#79c57e5f6e)"><path fill="#a1a6e6" d="M 806.246094 823.570312 C 852.207031 836.074219 916.804688 871.195312 966.617188 907.410156 C 983.890625 919.96875 999.386719 932.664062 1013.324219 945.433594 C 1005.613281 940.382812 998.121094 935.542969 990.96875 931.027344 C 929.964844 892.515625 893.316406 877.621094 857.476562 859.480469 C 830.882812 846.015625 804.738281 830.765625 785.863281 819.421875 C 792.234375 820.195312 799.011719 821.601562 806.246094 823.570312 Z M 665.304688 1227.546875 C 654.84375 1188.527344 652.886719 1148.207031 658.882812 1091.636719 C 666.316406 1021.5 685.976562 926.390625 709.46875 873.78125 C 713.058594 865.742188 716.738281 858.699219 720.558594 852.578125 C 716.597656 877.574219 710.855469 910.800781 702.796875 948.269531 C 690.613281 1004.894531 673.144531 1071.199219 667.910156 1141.597656 C 665.722656 1170.992188 665.671875 1201.09375 665.304688 1227.546875 Z M 741.464844 829.035156 C 748.1875 824.199219 755.4375 821.179688 763.394531 819.746094 C 767.757812 828.367188 774.644531 841.066406 784.46875 859.1875 C 817.347656 919.8125 883.105469 1041.0625 919.558594 1125.050781 C 956.015625 1209.035156 963.164062 1255.753906 962.359375 1281.140625 C 961.550781 1306.523438 952.785156 1310.570312 912.527344 1226.449219 C 872.265625 1142.324219 800.511719 970.03125 764.636719 883.886719 C 754.195312 858.820312 746.800781 841.058594 741.464844 829.035156 Z M 741.464844 829.035156 " fill-opacity="1" fill-rule="evenodd"/></g></g></g><g clip-path="url(#fba90859d8)"><g clip-path="url(#84f713c5ef)"><g clip-path="url(#57097603cd)"><path fill="#afb5fd" d="M 803.25 829.546875 C 840.769531 858.894531 907.554688 889.640625 966.378906 907.882812 C 1025.199219 926.128906 1076.058594 931.871094 1121.066406 930.089844 C 1166.070312 928.304688 1205.222656 918.992188 1245.105469 898.515625 C 1284.984375 878.035156 1325.59375 846.390625 1353.3125 793.398438 C 1381.027344 740.402344 1395.859375 666.0625 1375.054688 603.355469 C 1354.25 540.652344 1297.816406 489.582031 1239.324219 467.097656 C 1180.828125 444.609375 1120.28125 450.703125 1070.480469 465.34375 C 1020.679688 479.980469 981.628906 503.164062 929.878906 551.082031 C 878.128906 599.003906 813.679688 671.660156 785.582031 721.957031 C 757.484375 772.257812 765.734375 800.203125 803.25 829.546875 Z M 803.25 829.546875 " fill-opacity="1" fill-rule="evenodd"/></g></g></g><g clip-path="url(#b95c76b5cc)"><g clip-path="url(#9ccf0830f2)"><g clip-path="url(#ecb54859c3)"><path fill="#a1a6e6" d="M 803.25 829.546875 C 840.769531 858.894531 907.554688 889.640625 966.378906 907.882812 C 986.777344 914.210938 1006.21875 919.035156 1024.792969 922.5625 C 1016.128906 919.402344 1007.769531 916.296875 999.875 913.269531 C 932.515625 887.429688 898.652344 866.972656 862.675781 849.113281 C 835.976562 835.859375 808.113281 824.03125 787.734375 815.695312 C 792.160156 820.339844 797.34375 824.925781 803.25 829.546875 Z M 1042.621094 474.917969 C 1005.097656 489.878906 971.617188 512.433594 929.878906 551.082031 C 878.128906 599.003906 813.679688 671.660156 785.582031 721.957031 C 781.289062 729.644531 777.847656 736.804688 775.226562 743.53125 C 792.886719 725.402344 816.074219 700.921875 841.273438 672.046875 C 879.359375 628.40625 922.035156 574.738281 975.3125 528.425781 C 997.554688 509.085938 1021.644531 491.03125 1042.621094 474.914062 Z M 768.871094 774.367188 C 769.015625 782.648438 770.933594 790.265625 774.546875 797.5 C 784.066406 795.835938 798.363281 793.753906 818.757812 790.789062 C 887.007812 780.859375 1023.503906 761.003906 1112.613281 739.964844 C 1201.71875 718.925781 1243.429688 696.703125 1263.289062 680.871094 C 1283.144531 665.035156 1281.144531 655.59375 1189.652344 673.664062 C 1098.15625 691.734375 917.175781 737.324219 826.683594 760.117188 C 800.351562 766.75 781.695312 771.449219 768.871094 774.367188 Z M 768.871094 774.367188 " fill-opacity="1" fill-rule="evenodd"/></g></g></g><g clip-path="url(#374c0f5302)"><g clip-path="url(#9c2095b27a)"><g clip-path="url(#7c369ecd80)"><path fill="#afb5fd" d="M 721.105469 729.746094 C 712.355469 682.925781 682.574219 615.703125 650.503906 563.125 C 618.433594 510.546875 584.074219 472.617188 549.125 444.199219 C 514.179688 415.785156 478.644531 396.886719 435.183594 385.882812 C 391.726562 374.882812 340.335938 371.777344 284.503906 393.210938 C 228.675781 414.648438 168.398438 460.621094 142.554688 521.421875 C 116.707031 582.21875 125.285156 657.847656 154.304688 713.390625 C 183.324219 768.933594 232.78125 804.390625 279.824219 826.332031 C 326.867188 848.273438 371.492188 856.695312 442 854.957031 C 512.507812 853.21875 608.898438 841.3125 663.234375 822.148438 C 717.570312 802.988281 729.855469 776.566406 721.105469 729.746094 Z M 721.105469 729.746094 " fill-opacity="1" fill-rule="evenodd"/></g></g></g><g clip-path="url(#1341fe1df9)"><g clip-path="url(#5f474c4be9)"><g clip-path="url(#8628a15364)"><path fill="#a1a6e6" d="M 721.105469 729.746094 C 712.355469 682.925781 682.574219 615.703125 650.503906 563.125 C 639.382812 544.890625 627.980469 528.417969 616.382812 513.496094 C 620.789062 521.589844 625.011719 529.449219 628.933594 536.941406 C 662.386719 600.859375 674.269531 638.59375 689.453125 675.78125 C 700.722656 703.375 713.808594 730.667969 723.589844 750.398438 C 723.335938 743.984375 722.480469 737.117188 721.105469 729.746094 Z M 307.058594 837.566406 C 345.101562 851.148438 385.132812 856.359375 442 854.957031 C 512.507812 853.21875 608.898438 841.3125 663.234375 822.148438 C 671.535156 819.222656 678.851562 816.121094 685.265625 812.808594 C 660.027344 814.738281 626.445312 817.773438 588.449219 822.777344 C 531.023438 830.339844 463.527344 842.390625 392.933594 841.917969 C 363.460938 841.722656 333.449219 839.34375 307.058594 837.566406 Z M 710.417969 793.875 C 715.785156 787.566406 719.378906 780.585938 721.453125 772.769531 C 713.210938 767.722656 701.109375 759.832031 683.84375 748.574219 C 626.074219 710.902344 510.535156 635.554688 429.773438 592.433594 C 349.007812 549.308594 303.019531 538.402344 277.652344 537.152344 C 252.289062 535.90625 247.546875 544.316406 328.140625 591.246094 C 408.730469 638.171875 574.660156 723.621094 657.621094 766.347656 C 681.761719 778.777344 698.867188 787.585938 710.417969 793.875 Z M 710.417969 793.875 " fill-opacity="1" fill-rule="evenodd"/></g></g></g><g clip-path="url(#3aa776bd59)"><g clip-path="url(#23a828ffc5)"><g clip-path="url(#ae5d44dc5b)"><path fill="#926bad" d="M 630.933594 735.398438 C 644.683594 702.304688 672.296875 681.890625 699.351562 670.394531 C 726.402344 658.898438 752.902344 656.324219 777.699219 660.328125 C 802.5 664.335938 825.605469 674.921875 844.394531 693.824219 C 863.183594 712.726562 877.65625 739.945312 880.320312 769.542969 C 882.984375 799.140625 873.839844 831.113281 861.289062 856.449219 C 848.738281 881.785156 832.78125 900.480469 808.953125 912.320312 C 785.121094 924.160156 753.414062 929.140625 720.175781 919.285156 C 686.941406 909.429688 652.175781 884.730469 634.738281 849.496094 C 617.296875 814.261719 617.183594 768.492188 630.933594 735.398438 Z M 630.933594 735.398438 " fill-opacity="1" fill-rule="evenodd"/><path fill="#8a64a6" d="M 630.933594 735.398438 C 644.683594 702.304688 672.296875 681.890625 699.351562 670.394531 C 726.402344 658.898438 752.902344 656.324219 777.699219 660.328125 C 802.5 664.335938 825.605469 674.921875 844.394531 693.824219 C 863.183594 712.726562 877.65625 739.945312 880.320312 769.542969 C 882.984375 799.140625 873.839844 831.113281 861.289062 856.449219 C 848.738281 881.785156 832.78125 900.480469 808.953125 912.320312 C 785.121094 924.160156 753.414062 929.140625 720.175781 919.285156 C 707.230469 915.445312 694.050781 909.355469 681.753906 901.261719 C 693.191406 891.996094 713.5 887.597656 729.886719 882.679688 C 753.535156 875.578125 769 867.382812 785.617188 853.113281 C 802.230469 838.84375 819.992188 818.503906 824.113281 796.84375 C 828.238281 775.1875 818.71875 752.210938 804.261719 735.03125 C 789.804688 717.855469 770.410156 706.480469 746.640625 707.828125 C 722.871094 709.175781 694.722656 723.246094 670.105469 752.59375 C 652.9375 773.066406 637.484375 800.96875 624.949219 821.867188 C 618.085938 792.46875 620.574219 760.335938 630.933594 735.398438 Z M 630.933594 735.398438 " fill-opacity="1" fill-rule="evenodd"/></g></g></g></svg>