<svg xmlns="http://www.w3.org/2000/svg" xmlns:xlink="http://www.w3.org/1999/xlink" width="1500" zoomAndPan="magnify" viewBox="0 0 1125 374.999991" height="500" preserveAspectRatio="xMidYMid meet" version="1.0"><defs><g/></defs><g fill="#ff00ff" fill-opacity="1"><g transform="translate(25.359391, 296.750021)"><g><path d="M 26.59375 0 C 22.863281 0 19.695312 -1.296875 17.09375 -3.890625 C 14.5 -6.492188 13.203125 -9.664062 13.203125 -13.40625 L 13.203125 -111 C 13.203125 -120.46875 15.300781 -128.898438 19.5 -136.296875 C 23.695312 -143.703125 29.492188 -149.503906 36.890625 -153.703125 C 44.296875 -157.898438 52.734375 -160 62.203125 -160 L 78 -160 C 87.46875 -160 95.898438 -157.898438 103.296875 -153.703125 C 110.703125 -149.503906 116.503906 -143.703125 120.703125 -136.296875 C 124.898438 -128.898438 127 -120.46875 127 -111 L 127 -13.40625 C 127 -9.664062 125.734375 -6.492188 123.203125 -3.890625 C 120.671875 -1.296875 117.46875 0 113.59375 0 L 96.59375 0 C 92.863281 0 89.695312 -1.296875 87.09375 -3.890625 C 84.5 -6.492188 83.203125 -9.664062 83.203125 -13.40625 L 83.203125 -37.203125 C 83.203125 -40.796875 81.929688 -43.859375 79.390625 -46.390625 C 76.859375 -48.929688 73.726562 -50.203125 70 -50.203125 C 66.394531 -50.203125 63.328125 -48.929688 60.796875 -46.390625 C 58.265625 -43.859375 57 -40.726562 57 -37 L 57 -13.40625 C 57 -9.664062 55.734375 -6.492188 53.203125 -3.890625 C 50.671875 -1.296875 47.46875 0 43.59375 0 Z M 70 -76.59375 C 73.726562 -76.59375 76.859375 -77.859375 79.390625 -80.390625 C 81.929688 -82.929688 83.203125 -86 83.203125 -89.59375 L 83.203125 -110.59375 C 83.203125 -114.332031 81.929688 -117.46875 79.390625 -120 C 76.859375 -122.53125 73.726562 -123.796875 70 -123.796875 C 66.394531 -123.796875 63.328125 -122.53125 60.796875 -120 C 58.265625 -117.46875 57 -114.332031 57 -110.59375 L 57 -89.59375 C 57 -86 58.265625 -82.929688 60.796875 -80.390625 C 63.328125 -77.859375 66.394531 -76.59375 70 -76.59375 Z M 70 -76.59375 "/></g></g></g><g fill="#ff00ff" fill-opacity="1"><g transform="translate(165.555637, 296.750021)"><g><path d="M 26.59375 0 C 22.863281 0 19.695312 -1.296875 17.09375 -3.890625 C 14.5 -6.492188 13.203125 -9.664062 13.203125 -13.40625 L 13.203125 -146.59375 C 13.203125 -150.46875 14.5 -153.671875 17.09375 -156.203125 C 19.695312 -158.734375 22.863281 -160 26.59375 -160 L 116.203125 -160 C 124.066406 -160 131.066406 -158.234375 137.203125 -154.703125 C 143.335938 -151.171875 148.171875 -146.335938 151.703125 -140.203125 C 155.234375 -134.066406 157 -127.066406 157 -119.203125 L 157 -107 C 157 -103 155.695312 -99.695312 153.09375 -97.09375 C 150.5 -94.5 147.203125 -93.203125 143.203125 -93.203125 L 142.796875 -93.203125 C 139.203125 -93.203125 136.132812 -91.929688 133.59375 -89.390625 C 131.0625 -86.859375 129.796875 -83.726562 129.796875 -80 C 129.796875 -76.269531 131.0625 -73.132812 133.59375 -70.59375 C 136.132812 -68.0625 139.203125 -66.796875 142.796875 -66.796875 L 144.59375 -66.796875 C 148.195312 -66.796875 151.164062 -65.660156 153.5 -63.390625 C 155.832031 -61.128906 157 -58.195312 157 -54.59375 L 157 -13.40625 C 157 -9.664062 155.734375 -6.492188 153.203125 -3.890625 C 150.671875 -1.296875 147.46875 0 143.59375 0 L 126.59375 0 C 122.863281 0 119.695312 -1.296875 117.09375 -3.890625 C 114.5 -6.492188 113.203125 -9.664062 113.203125 -13.40625 L 113.203125 -49.59375 C 113.203125 -53.195312 111.929688 -56.265625 109.390625 -58.796875 C 106.859375 -61.328125 103.726562 -62.59375 100 -62.59375 L 70 -62.59375 C 66.394531 -62.59375 63.328125 -61.328125 60.796875 -58.796875 C 58.265625 -56.265625 57 -53.195312 57 -49.59375 L 57 -13.40625 C 57 -9.664062 55.734375 -6.492188 53.203125 -3.890625 C 50.671875 -1.296875 47.46875 0 43.59375 0 Z M 70 -97.59375 L 100 -97.59375 C 103.726562 -97.59375 106.859375 -98.859375 109.390625 -101.390625 C 111.929688 -103.929688 113.203125 -107 113.203125 -110.59375 C 113.203125 -114.332031 111.929688 -117.46875 109.390625 -120 C 106.859375 -122.53125 103.726562 -123.796875 100 -123.796875 L 70 -123.796875 C 66.394531 -123.796875 63.328125 -122.53125 60.796875 -120 C 58.265625 -117.46875 57 -114.332031 57 -110.59375 C 57 -107 58.265625 -103.929688 60.796875 -101.390625 C 63.328125 -98.859375 66.394531 -97.59375 70 -97.59375 Z M 70 -97.59375 "/></g></g></g><g fill="#ff00ff" fill-opacity="1"><g transform="translate(335.751109, 296.750021)"><g><path d="M 26.59375 0 C 22.863281 0 19.695312 -1.296875 17.09375 -3.890625 C 14.5 -6.492188 13.203125 -9.664062 13.203125 -13.40625 L 13.203125 -146.59375 C 13.203125 -150.46875 14.5 -153.671875 17.09375 -156.203125 C 19.695312 -158.734375 22.863281 -160 26.59375 -160 L 43.59375 -160 C 47.46875 -160 50.671875 -158.734375 53.203125 -156.203125 C 55.734375 -153.671875 57 -150.46875 57 -146.59375 L 57 -13.40625 C 57 -9.664062 55.734375 -6.492188 53.203125 -3.890625 C 50.671875 -1.296875 47.46875 0 43.59375 0 Z M 26.59375 0 "/></g></g></g><g fill="#ff00ff" fill-opacity="1"><g transform="translate(405.949209, 296.750021)"><g/></g></g><g fill="#ff00ff" fill-opacity="1"><g transform="translate(482.347123, 296.750021)"><g><path d="M 26.59375 0 C 22.863281 0 19.695312 -1.296875 17.09375 -3.890625 C 14.5 -6.492188 13.203125 -9.664062 13.203125 -13.40625 L 13.203125 -146.59375 C 13.203125 -150.46875 14.5 -153.671875 17.09375 -156.203125 C 19.695312 -158.734375 22.863281 -160 26.59375 -160 L 78 -160 C 87.46875 -160 95.898438 -157.898438 103.296875 -153.703125 C 110.703125 -149.503906 116.503906 -143.703125 120.703125 -136.296875 C 124.898438 -128.898438 127 -120.46875 127 -111 L 127 -49 C 127 -39.53125 124.898438 -31.09375 120.703125 -23.6875 C 116.503906 -16.289062 110.703125 -10.492188 103.296875 -6.296875 C 95.898438 -2.097656 87.46875 0 78 0 Z M 70 -36.203125 C 73.726562 -36.203125 76.859375 -37.46875 79.390625 -40 C 81.929688 -42.53125 83.203125 -45.664062 83.203125 -49.40625 L 83.203125 -110.59375 C 83.203125 -114.332031 81.929688 -117.46875 79.390625 -120 C 76.859375 -122.53125 73.726562 -123.796875 70 -123.796875 C 66.394531 -123.796875 63.328125 -122.53125 60.796875 -120 C 58.265625 -117.46875 57 -114.332031 57 -110.59375 L 57 -49.40625 C 57 -45.664062 58.265625 -42.53125 60.796875 -40 C 63.328125 -37.46875 66.394531 -36.203125 70 -36.203125 Z M 70 -36.203125 "/></g></g></g><g fill="#ff00ff" fill-opacity="1"><g transform="translate(622.543368, 296.750021)"><g><path d="M 26.59375 0 C 22.863281 0 19.695312 -1.296875 17.09375 -3.890625 C 14.5 -6.492188 13.203125 -9.664062 13.203125 -13.40625 L 13.203125 -111 C 13.203125 -120.46875 15.300781 -128.898438 19.5 -136.296875 C 23.695312 -143.703125 29.492188 -149.503906 36.890625 -153.703125 C 44.296875 -157.898438 52.734375 -160 62.203125 -160 L 78 -160 C 87.46875 -160 95.898438 -157.898438 103.296875 -153.703125 C 110.703125 -149.503906 116.503906 -143.703125 120.703125 -136.296875 C 124.898438 -128.898438 127 -120.46875 127 -111 L 127 -13.40625 C 127 -9.664062 125.734375 -6.492188 123.203125 -3.890625 C 120.671875 -1.296875 117.46875 0 113.59375 0 L 96.59375 0 C 92.863281 0 89.695312 -1.296875 87.09375 -3.890625 C 84.5 -6.492188 83.203125 -9.664062 83.203125 -13.40625 L 83.203125 -37.203125 C 83.203125 -40.796875 81.929688 -43.859375 79.390625 -46.390625 C 76.859375 -48.929688 73.726562 -50.203125 70 -50.203125 C 66.394531 -50.203125 63.328125 -48.929688 60.796875 -46.390625 C 58.265625 -43.859375 57 -40.726562 57 -37 L 57 -13.40625 C 57 -9.664062 55.734375 -6.492188 53.203125 -3.890625 C 50.671875 -1.296875 47.46875 0 43.59375 0 Z M 70 -76.59375 C 73.726562 -76.59375 76.859375 -77.859375 79.390625 -80.390625 C 81.929688 -82.929688 83.203125 -86 83.203125 -89.59375 L 83.203125 -110.59375 C 83.203125 -114.332031 81.929688 -117.46875 79.390625 -120 C 76.859375 -122.53125 73.726562 -123.796875 70 -123.796875 C 66.394531 -123.796875 63.328125 -122.53125 60.796875 -120 C 58.265625 -117.46875 57 -114.332031 57 -110.59375 L 57 -89.59375 C 57 -86 58.265625 -82.929688 60.796875 -80.390625 C 63.328125 -77.859375 66.394531 -76.59375 70 -76.59375 Z M 70 -76.59375 "/></g></g></g><g fill="#ff00ff" fill-opacity="1"><g transform="translate(762.739614, 296.750021)"><g><path d="M 26.59375 0 C 22.863281 0 19.695312 -1.296875 17.09375 -3.890625 C 14.5 -6.492188 13.203125 -9.664062 13.203125 -13.40625 L 13.203125 -146.59375 C 13.203125 -150.46875 14.5 -153.671875 17.09375 -156.203125 C 19.695312 -158.734375 22.863281 -160 26.59375 -160 L 107.59375 -160 C 111.46875 -160 114.671875 -158.664062 117.203125 -156 C 119.734375 -153.332031 121 -150.132812 121 -146.40625 L 121 -49.40625 C 121 -45.664062 122.265625 -42.53125 124.796875 -40 C 127.328125 -37.46875 130.394531 -36.203125 134 -36.203125 C 137.726562 -36.203125 140.859375 -37.46875 143.390625 -40 C 145.929688 -42.53125 147.203125 -45.664062 147.203125 -49.40625 L 147.203125 -146.59375 C 147.203125 -150.46875 148.5 -153.671875 151.09375 -156.203125 C 153.695312 -158.734375 156.863281 -160 160.59375 -160 L 177.59375 -160 C 181.46875 -160 184.671875 -158.734375 187.203125 -156.203125 C 189.734375 -153.671875 191 -150.46875 191 -146.59375 L 191 -13.40625 C 191 -9.664062 189.734375 -6.492188 187.203125 -3.890625 C 184.671875 -1.296875 181.46875 0 177.59375 0 L 96.59375 0 C 92.863281 0 89.695312 -1.332031 87.09375 -4 C 84.5 -6.664062 83.203125 -9.863281 83.203125 -13.59375 L 83.203125 -110.796875 C 83.203125 -114.398438 81.929688 -117.46875 79.390625 -120 C 76.859375 -122.53125 73.726562 -123.796875 70 -123.796875 C 66.394531 -123.796875 63.328125 -122.53125 60.796875 -120 C 58.265625 -117.46875 57 -114.398438 57 -110.796875 L 57 -13.40625 C 57 -9.664062 55.734375 -6.492188 53.203125 -3.890625 C 50.671875 -1.296875 47.46875 0 43.59375 0 Z M 26.59375 0 "/></g></g></g><g fill="#ff00ff" fill-opacity="1"><g transform="translate(966.934151, 296.750021)"><g><path d="M 62.203125 0 C 52.734375 0 44.296875 -2.097656 36.890625 -6.296875 C 29.492188 -10.492188 23.695312 -16.289062 19.5 -23.6875 C 15.300781 -31.09375 13.203125 -39.53125 13.203125 -49 L 13.203125 -111 C 13.203125 -120.46875 15.300781 -128.898438 19.5 -136.296875 C 23.695312 -143.703125 29.492188 -149.503906 36.890625 -153.703125 C 44.296875 -157.898438 52.734375 -160 62.203125 -160 L 113.59375 -160 C 117.46875 -160 120.671875 -158.734375 123.203125 -156.203125 C 125.734375 -153.671875 127 -150.46875 127 -146.59375 L 127 -137 C 127 -133.269531 125.695312 -130.132812 123.09375 -127.59375 C 120.5 -125.0625 117.332031 -123.796875 113.59375 -123.796875 L 70 -123.796875 C 66.394531 -123.796875 63.328125 -122.53125 60.796875 -120 C 58.265625 -117.46875 57 -114.332031 57 -110.59375 L 57 -49.40625 C 57 -45.664062 58.265625 -42.53125 60.796875 -40 C 63.328125 -37.46875 66.394531 -36.203125 70 -36.203125 C 73.601562 -36.203125 76.703125 -37.46875 79.296875 -40 C 81.898438 -42.53125 83.203125 -45.664062 83.203125 -49.40625 L 83.203125 -82.203125 C 83.203125 -86.203125 84.535156 -89.429688 87.203125 -91.890625 C 89.867188 -94.359375 93.066406 -95.59375 96.796875 -95.59375 L 113.796875 -95.59375 C 117.660156 -95.59375 120.828125 -94.289062 123.296875 -91.6875 C 125.765625 -89.09375 127 -85.863281 127 -82 L 127 -13.40625 C 127 -9.53125 125.695312 -6.328125 123.09375 -3.796875 C 120.5 -1.265625 117.332031 0 113.59375 0 Z M 62.203125 0 "/></g></g></g><g fill="#00ffff" fill-opacity="1"><g transform="translate(17.859383, 296.750021)"><g><path d="M 26.59375 0 C 22.863281 0 19.695312 -1.296875 17.09375 -3.890625 C 14.5 -6.492188 13.203125 -9.664062 13.203125 -13.40625 L 13.203125 -111 C 13.203125 -120.46875 15.300781 -128.898438 19.5 -136.296875 C 23.695312 -143.703125 29.492188 -149.503906 36.890625 -153.703125 C 44.296875 -157.898438 52.734375 -160 62.203125 -160 L 78 -160 C 87.46875 -160 95.898438 -157.898438 103.296875 -153.703125 C 110.703125 -149.503906 116.503906 -143.703125 120.703125 -136.296875 C 124.898438 -128.898438 127 -120.46875 127 -111 L 127 -13.40625 C 127 -9.664062 125.734375 -6.492188 123.203125 -3.890625 C 120.671875 -1.296875 117.46875 0 113.59375 0 L 96.59375 0 C 92.863281 0 89.695312 -1.296875 87.09375 -3.890625 C 84.5 -6.492188 83.203125 -9.664062 83.203125 -13.40625 L 83.203125 -37.203125 C 83.203125 -40.796875 81.929688 -43.859375 79.390625 -46.390625 C 76.859375 -48.929688 73.726562 -50.203125 70 -50.203125 C 66.394531 -50.203125 63.328125 -48.929688 60.796875 -46.390625 C 58.265625 -43.859375 57 -40.726562 57 -37 L 57 -13.40625 C 57 -9.664062 55.734375 -6.492188 53.203125 -3.890625 C 50.671875 -1.296875 47.46875 0 43.59375 0 Z M 70 -76.59375 C 73.726562 -76.59375 76.859375 -77.859375 79.390625 -80.390625 C 81.929688 -82.929688 83.203125 -86 83.203125 -89.59375 L 83.203125 -110.59375 C 83.203125 -114.332031 81.929688 -117.46875 79.390625 -120 C 76.859375 -122.53125 73.726562 -123.796875 70 -123.796875 C 66.394531 -123.796875 63.328125 -122.53125 60.796875 -120 C 58.265625 -117.46875 57 -114.332031 57 -110.59375 L 57 -89.59375 C 57 -86 58.265625 -82.929688 60.796875 -80.390625 C 63.328125 -77.859375 66.394531 -76.59375 70 -76.59375 Z M 70 -76.59375 "/></g></g></g><g fill="#00ffff" fill-opacity="1"><g transform="translate(158.055629, 296.750021)"><g><path d="M 26.59375 0 C 22.863281 0 19.695312 -1.296875 17.09375 -3.890625 C 14.5 -6.492188 13.203125 -9.664062 13.203125 -13.40625 L 13.203125 -146.59375 C 13.203125 -150.46875 14.5 -153.671875 17.09375 -156.203125 C 19.695312 -158.734375 22.863281 -160 26.59375 -160 L 116.203125 -160 C 124.066406 -160 131.066406 -158.234375 137.203125 -154.703125 C 143.335938 -151.171875 148.171875 -146.335938 151.703125 -140.203125 C 155.234375 -134.066406 157 -127.066406 157 -119.203125 L 157 -107 C 157 -103 155.695312 -99.695312 153.09375 -97.09375 C 150.5 -94.5 147.203125 -93.203125 143.203125 -93.203125 L 142.796875 -93.203125 C 139.203125 -93.203125 136.132812 -91.929688 133.59375 -89.390625 C 131.0625 -86.859375 129.796875 -83.726562 129.796875 -80 C 129.796875 -76.269531 131.0625 -73.132812 133.59375 -70.59375 C 136.132812 -68.0625 139.203125 -66.796875 142.796875 -66.796875 L 144.59375 -66.796875 C 148.195312 -66.796875 151.164062 -65.660156 153.5 -63.390625 C 155.832031 -61.128906 157 -58.195312 157 -54.59375 L 157 -13.40625 C 157 -9.664062 155.734375 -6.492188 153.203125 -3.890625 C 150.671875 -1.296875 147.46875 0 143.59375 0 L 126.59375 0 C 122.863281 0 119.695312 -1.296875 117.09375 -3.890625 C 114.5 -6.492188 113.203125 -9.664062 113.203125 -13.40625 L 113.203125 -49.59375 C 113.203125 -53.195312 111.929688 -56.265625 109.390625 -58.796875 C 106.859375 -61.328125 103.726562 -62.59375 100 -62.59375 L 70 -62.59375 C 66.394531 -62.59375 63.328125 -61.328125 60.796875 -58.796875 C 58.265625 -56.265625 57 -53.195312 57 -49.59375 L 57 -13.40625 C 57 -9.664062 55.734375 -6.492188 53.203125 -3.890625 C 50.671875 -1.296875 47.46875 0 43.59375 0 Z M 70 -97.59375 L 100 -97.59375 C 103.726562 -97.59375 106.859375 -98.859375 109.390625 -101.390625 C 111.929688 -103.929688 113.203125 -107 113.203125 -110.59375 C 113.203125 -114.332031 111.929688 -117.46875 109.390625 -120 C 106.859375 -122.53125 103.726562 -123.796875 100 -123.796875 L 70 -123.796875 C 66.394531 -123.796875 63.328125 -122.53125 60.796875 -120 C 58.265625 -117.46875 57 -114.332031 57 -110.59375 C 57 -107 58.265625 -103.929688 60.796875 -101.390625 C 63.328125 -98.859375 66.394531 -97.59375 70 -97.59375 Z M 70 -97.59375 "/></g></g></g><g fill="#00ffff" fill-opacity="1"><g transform="translate(328.2511, 296.750021)"><g><path d="M 26.59375 0 C 22.863281 0 19.695312 -1.296875 17.09375 -3.890625 C 14.5 -6.492188 13.203125 -9.664062 13.203125 -13.40625 L 13.203125 -146.59375 C 13.203125 -150.46875 14.5 -153.671875 17.09375 -156.203125 C 19.695312 -158.734375 22.863281 -160 26.59375 -160 L 43.59375 -160 C 47.46875 -160 50.671875 -158.734375 53.203125 -156.203125 C 55.734375 -153.671875 57 -150.46875 57 -146.59375 L 57 -13.40625 C 57 -9.664062 55.734375 -6.492188 53.203125 -3.890625 C 50.671875 -1.296875 47.46875 0 43.59375 0 Z M 26.59375 0 "/></g></g></g><g fill="#00ffff" fill-opacity="1"><g transform="translate(398.4492, 296.750021)"><g/></g></g><g fill="#00ffff" fill-opacity="1"><g transform="translate(474.847114, 296.750021)"><g><path d="M 26.59375 0 C 22.863281 0 19.695312 -1.296875 17.09375 -3.890625 C 14.5 -6.492188 13.203125 -9.664062 13.203125 -13.40625 L 13.203125 -146.59375 C 13.203125 -150.46875 14.5 -153.671875 17.09375 -156.203125 C 19.695312 -158.734375 22.863281 -160 26.59375 -160 L 78 -160 C 87.46875 -160 95.898438 -157.898438 103.296875 -153.703125 C 110.703125 -149.503906 116.503906 -143.703125 120.703125 -136.296875 C 124.898438 -128.898438 127 -120.46875 127 -111 L 127 -49 C 127 -39.53125 124.898438 -31.09375 120.703125 -23.6875 C 116.503906 -16.289062 110.703125 -10.492188 103.296875 -6.296875 C 95.898438 -2.097656 87.46875 0 78 0 Z M 70 -36.203125 C 73.726562 -36.203125 76.859375 -37.46875 79.390625 -40 C 81.929688 -42.53125 83.203125 -45.664062 83.203125 -49.40625 L 83.203125 -110.59375 C 83.203125 -114.332031 81.929688 -117.46875 79.390625 -120 C 76.859375 -122.53125 73.726562 -123.796875 70 -123.796875 C 66.394531 -123.796875 63.328125 -122.53125 60.796875 -120 C 58.265625 -117.46875 57 -114.332031 57 -110.59375 L 57 -49.40625 C 57 -45.664062 58.265625 -42.53125 60.796875 -40 C 63.328125 -37.46875 66.394531 -36.203125 70 -36.203125 Z M 70 -36.203125 "/></g></g></g><g fill="#00ffff" fill-opacity="1"><g transform="translate(615.04336, 296.750021)"><g><path d="M 26.59375 0 C 22.863281 0 19.695312 -1.296875 17.09375 -3.890625 C 14.5 -6.492188 13.203125 -9.664062 13.203125 -13.40625 L 13.203125 -111 C 13.203125 -120.46875 15.300781 -128.898438 19.5 -136.296875 C 23.695312 -143.703125 29.492188 -149.503906 36.890625 -153.703125 C 44.296875 -157.898438 52.734375 -160 62.203125 -160 L 78 -160 C 87.46875 -160 95.898438 -157.898438 103.296875 -153.703125 C 110.703125 -149.503906 116.503906 -143.703125 120.703125 -136.296875 C 124.898438 -128.898438 127 -120.46875 127 -111 L 127 -13.40625 C 127 -9.664062 125.734375 -6.492188 123.203125 -3.890625 C 120.671875 -1.296875 117.46875 0 113.59375 0 L 96.59375 0 C 92.863281 0 89.695312 -1.296875 87.09375 -3.890625 C 84.5 -6.492188 83.203125 -9.664062 83.203125 -13.40625 L 83.203125 -37.203125 C 83.203125 -40.796875 81.929688 -43.859375 79.390625 -46.390625 C 76.859375 -48.929688 73.726562 -50.203125 70 -50.203125 C 66.394531 -50.203125 63.328125 -48.929688 60.796875 -46.390625 C 58.265625 -43.859375 57 -40.726562 57 -37 L 57 -13.40625 C 57 -9.664062 55.734375 -6.492188 53.203125 -3.890625 C 50.671875 -1.296875 47.46875 0 43.59375 0 Z M 70 -76.59375 C 73.726562 -76.59375 76.859375 -77.859375 79.390625 -80.390625 C 81.929688 -82.929688 83.203125 -86 83.203125 -89.59375 L 83.203125 -110.59375 C 83.203125 -114.332031 81.929688 -117.46875 79.390625 -120 C 76.859375 -122.53125 73.726562 -123.796875 70 -123.796875 C 66.394531 -123.796875 63.328125 -122.53125 60.796875 -120 C 58.265625 -117.46875 57 -114.332031 57 -110.59375 L 57 -89.59375 C 57 -86 58.265625 -82.929688 60.796875 -80.390625 C 63.328125 -77.859375 66.394531 -76.59375 70 -76.59375 Z M 70 -76.59375 "/></g></g></g><g fill="#00ffff" fill-opacity="1"><g transform="translate(755.239606, 296.750021)"><g><path d="M 26.59375 0 C 22.863281 0 19.695312 -1.296875 17.09375 -3.890625 C 14.5 -6.492188 13.203125 -9.664062 13.203125 -13.40625 L 13.203125 -146.59375 C 13.203125 -150.46875 14.5 -153.671875 17.09375 -156.203125 C 19.695312 -158.734375 22.863281 -160 26.59375 -160 L 107.59375 -160 C 111.46875 -160 114.671875 -158.664062 117.203125 -156 C 119.734375 -153.332031 121 -150.132812 121 -146.40625 L 121 -49.40625 C 121 -45.664062 122.265625 -42.53125 124.796875 -40 C 127.328125 -37.46875 130.394531 -36.203125 134 -36.203125 C 137.726562 -36.203125 140.859375 -37.46875 143.390625 -40 C 145.929688 -42.53125 147.203125 -45.664062 147.203125 -49.40625 L 147.203125 -146.59375 C 147.203125 -150.46875 148.5 -153.671875 151.09375 -156.203125 C 153.695312 -158.734375 156.863281 -160 160.59375 -160 L 177.59375 -160 C 181.46875 -160 184.671875 -158.734375 187.203125 -156.203125 C 189.734375 -153.671875 191 -150.46875 191 -146.59375 L 191 -13.40625 C 191 -9.664062 189.734375 -6.492188 187.203125 -3.890625 C 184.671875 -1.296875 181.46875 0 177.59375 0 L 96.59375 0 C 92.863281 0 89.695312 -1.332031 87.09375 -4 C 84.5 -6.664062 83.203125 -9.863281 83.203125 -13.59375 L 83.203125 -110.796875 C 83.203125 -114.398438 81.929688 -117.46875 79.390625 -120 C 76.859375 -122.53125 73.726562 -123.796875 70 -123.796875 C 66.394531 -123.796875 63.328125 -122.53125 60.796875 -120 C 58.265625 -117.46875 57 -114.398438 57 -110.796875 L 57 -13.40625 C 57 -9.664062 55.734375 -6.492188 53.203125 -3.890625 C 50.671875 -1.296875 47.46875 0 43.59375 0 Z M 26.59375 0 "/></g></g></g><g fill="#00ffff" fill-opacity="1"><g transform="translate(959.434142, 296.750021)"><g><path d="M 62.203125 0 C 52.734375 0 44.296875 -2.097656 36.890625 -6.296875 C 29.492188 -10.492188 23.695312 -16.289062 19.5 -23.6875 C 15.300781 -31.09375 13.203125 -39.53125 13.203125 -49 L 13.203125 -111 C 13.203125 -120.46875 15.300781 -128.898438 19.5 -136.296875 C 23.695312 -143.703125 29.492188 -149.503906 36.890625 -153.703125 C 44.296875 -157.898438 52.734375 -160 62.203125 -160 L 113.59375 -160 C 117.46875 -160 120.671875 -158.734375 123.203125 -156.203125 C 125.734375 -153.671875 127 -150.46875 127 -146.59375 L 127 -137 C 127 -133.269531 125.695312 -130.132812 123.09375 -127.59375 C 120.5 -125.0625 117.332031 -123.796875 113.59375 -123.796875 L 70 -123.796875 C 66.394531 -123.796875 63.328125 -122.53125 60.796875 -120 C 58.265625 -117.46875 57 -114.332031 57 -110.59375 L 57 -49.40625 C 57 -45.664062 58.265625 -42.53125 60.796875 -40 C 63.328125 -37.46875 66.394531 -36.203125 70 -36.203125 C 73.601562 -36.203125 76.703125 -37.46875 79.296875 -40 C 81.898438 -42.53125 83.203125 -45.664062 83.203125 -49.40625 L 83.203125 -82.203125 C 83.203125 -86.203125 84.535156 -89.429688 87.203125 -91.890625 C 89.867188 -94.359375 93.066406 -95.59375 96.796875 -95.59375 L 113.796875 -95.59375 C 117.660156 -95.59375 120.828125 -94.289062 123.296875 -91.6875 C 125.765625 -89.09375 127 -85.863281 127 -82 L 127 -13.40625 C 127 -9.53125 125.695312 -6.328125 123.09375 -3.796875 C 120.5 -1.265625 117.332031 0 113.59375 0 Z M 62.203125 0 "/></g></g></g><g fill="#515389" fill-opacity="1"><g transform="translate(21.609387, 296.750021)"><g><path d="M 26.59375 0 C 22.863281 0 19.695312 -1.296875 17.09375 -3.890625 C 14.5 -6.492188 13.203125 -9.664062 13.203125 -13.40625 L 13.203125 -111 C 13.203125 -120.46875 15.300781 -128.898438 19.5 -136.296875 C 23.695312 -143.703125 29.492188 -149.503906 36.890625 -153.703125 C 44.296875 -157.898438 52.734375 -160 62.203125 -160 L 78 -160 C 87.46875 -160 95.898438 -157.898438 103.296875 -153.703125 C 110.703125 -149.503906 116.503906 -143.703125 120.703125 -136.296875 C 124.898438 -128.898438 127 -120.46875 127 -111 L 127 -13.40625 C 127 -9.664062 125.734375 -6.492188 123.203125 -3.890625 C 120.671875 -1.296875 117.46875 0 113.59375 0 L 96.59375 0 C 92.863281 0 89.695312 -1.296875 87.09375 -3.890625 C 84.5 -6.492188 83.203125 -9.664062 83.203125 -13.40625 L 83.203125 -37.203125 C 83.203125 -40.796875 81.929688 -43.859375 79.390625 -46.390625 C 76.859375 -48.929688 73.726562 -50.203125 70 -50.203125 C 66.394531 -50.203125 63.328125 -48.929688 60.796875 -46.390625 C 58.265625 -43.859375 57 -40.726562 57 -37 L 57 -13.40625 C 57 -9.664062 55.734375 -6.492188 53.203125 -3.890625 C 50.671875 -1.296875 47.46875 0 43.59375 0 Z M 70 -76.59375 C 73.726562 -76.59375 76.859375 -77.859375 79.390625 -80.390625 C 81.929688 -82.929688 83.203125 -86 83.203125 -89.59375 L 83.203125 -110.59375 C 83.203125 -114.332031 81.929688 -117.46875 79.390625 -120 C 76.859375 -122.53125 73.726562 -123.796875 70 -123.796875 C 66.394531 -123.796875 63.328125 -122.53125 60.796875 -120 C 58.265625 -117.46875 57 -114.332031 57 -110.59375 L 57 -89.59375 C 57 -86 58.265625 -82.929688 60.796875 -80.390625 C 63.328125 -77.859375 66.394531 -76.59375 70 -76.59375 Z M 70 -76.59375 "/></g></g></g><g fill="#515389" fill-opacity="1"><g transform="translate(161.805633, 296.750021)"><g><path d="M 26.59375 0 C 22.863281 0 19.695312 -1.296875 17.09375 -3.890625 C 14.5 -6.492188 13.203125 -9.664062 13.203125 -13.40625 L 13.203125 -146.59375 C 13.203125 -150.46875 14.5 -153.671875 17.09375 -156.203125 C 19.695312 -158.734375 22.863281 -160 26.59375 -160 L 116.203125 -160 C 124.066406 -160 131.066406 -158.234375 137.203125 -154.703125 C 143.335938 -151.171875 148.171875 -146.335938 151.703125 -140.203125 C 155.234375 -134.066406 157 -127.066406 157 -119.203125 L 157 -107 C 157 -103 155.695312 -99.695312 153.09375 -97.09375 C 150.5 -94.5 147.203125 -93.203125 143.203125 -93.203125 L 142.796875 -93.203125 C 139.203125 -93.203125 136.132812 -91.929688 133.59375 -89.390625 C 131.0625 -86.859375 129.796875 -83.726562 129.796875 -80 C 129.796875 -76.269531 131.0625 -73.132812 133.59375 -70.59375 C 136.132812 -68.0625 139.203125 -66.796875 142.796875 -66.796875 L 144.59375 -66.796875 C 148.195312 -66.796875 151.164062 -65.660156 153.5 -63.390625 C 155.832031 -61.128906 157 -58.195312 157 -54.59375 L 157 -13.40625 C 157 -9.664062 155.734375 -6.492188 153.203125 -3.890625 C 150.671875 -1.296875 147.46875 0 143.59375 0 L 126.59375 0 C 122.863281 0 119.695312 -1.296875 117.09375 -3.890625 C 114.5 -6.492188 113.203125 -9.664062 113.203125 -13.40625 L 113.203125 -49.59375 C 113.203125 -53.195312 111.929688 -56.265625 109.390625 -58.796875 C 106.859375 -61.328125 103.726562 -62.59375 100 -62.59375 L 70 -62.59375 C 66.394531 -62.59375 63.328125 -61.328125 60.796875 -58.796875 C 58.265625 -56.265625 57 -53.195312 57 -49.59375 L 57 -13.40625 C 57 -9.664062 55.734375 -6.492188 53.203125 -3.890625 C 50.671875 -1.296875 47.46875 0 43.59375 0 Z M 70 -97.59375 L 100 -97.59375 C 103.726562 -97.59375 106.859375 -98.859375 109.390625 -101.390625 C 111.929688 -103.929688 113.203125 -107 113.203125 -110.59375 C 113.203125 -114.332031 111.929688 -117.46875 109.390625 -120 C 106.859375 -122.53125 103.726562 -123.796875 100 -123.796875 L 70 -123.796875 C 66.394531 -123.796875 63.328125 -122.53125 60.796875 -120 C 58.265625 -117.46875 57 -114.332031 57 -110.59375 C 57 -107 58.265625 -103.929688 60.796875 -101.390625 C 63.328125 -98.859375 66.394531 -97.59375 70 -97.59375 Z M 70 -97.59375 "/></g></g></g><g fill="#515389" fill-opacity="1"><g transform="translate(332.001104, 296.750021)"><g><path d="M 26.59375 0 C 22.863281 0 19.695312 -1.296875 17.09375 -3.890625 C 14.5 -6.492188 13.203125 -9.664062 13.203125 -13.40625 L 13.203125 -146.59375 C 13.203125 -150.46875 14.5 -153.671875 17.09375 -156.203125 C 19.695312 -158.734375 22.863281 -160 26.59375 -160 L 43.59375 -160 C 47.46875 -160 50.671875 -158.734375 53.203125 -156.203125 C 55.734375 -153.671875 57 -150.46875 57 -146.59375 L 57 -13.40625 C 57 -9.664062 55.734375 -6.492188 53.203125 -3.890625 C 50.671875 -1.296875 47.46875 0 43.59375 0 Z M 26.59375 0 "/></g></g></g><g fill="#515389" fill-opacity="1"><g transform="translate(402.199204, 296.750021)"><g/></g></g><g fill="#515389" fill-opacity="1"><g transform="translate(478.597118, 296.750021)"><g><path d="M 26.59375 0 C 22.863281 0 19.695312 -1.296875 17.09375 -3.890625 C 14.5 -6.492188 13.203125 -9.664062 13.203125 -13.40625 L 13.203125 -146.59375 C 13.203125 -150.46875 14.5 -153.671875 17.09375 -156.203125 C 19.695312 -158.734375 22.863281 -160 26.59375 -160 L 78 -160 C 87.46875 -160 95.898438 -157.898438 103.296875 -153.703125 C 110.703125 -149.503906 116.503906 -143.703125 120.703125 -136.296875 C 124.898438 -128.898438 127 -120.46875 127 -111 L 127 -49 C 127 -39.53125 124.898438 -31.09375 120.703125 -23.6875 C 116.503906 -16.289062 110.703125 -10.492188 103.296875 -6.296875 C 95.898438 -2.097656 87.46875 0 78 0 Z M 70 -36.203125 C 73.726562 -36.203125 76.859375 -37.46875 79.390625 -40 C 81.929688 -42.53125 83.203125 -45.664062 83.203125 -49.40625 L 83.203125 -110.59375 C 83.203125 -114.332031 81.929688 -117.46875 79.390625 -120 C 76.859375 -122.53125 73.726562 -123.796875 70 -123.796875 C 66.394531 -123.796875 63.328125 -122.53125 60.796875 -120 C 58.265625 -117.46875 57 -114.332031 57 -110.59375 L 57 -49.40625 C 57 -45.664062 58.265625 -42.53125 60.796875 -40 C 63.328125 -37.46875 66.394531 -36.203125 70 -36.203125 Z M 70 -36.203125 "/></g></g></g><g fill="#515389" fill-opacity="1"><g transform="translate(618.793364, 296.750021)"><g><path d="M 26.59375 0 C 22.863281 0 19.695312 -1.296875 17.09375 -3.890625 C 14.5 -6.492188 13.203125 -9.664062 13.203125 -13.40625 L 13.203125 -111 C 13.203125 -120.46875 15.300781 -128.898438 19.5 -136.296875 C 23.695312 -143.703125 29.492188 -149.503906 36.890625 -153.703125 C 44.296875 -157.898438 52.734375 -160 62.203125 -160 L 78 -160 C 87.46875 -160 95.898438 -157.898438 103.296875 -153.703125 C 110.703125 -149.503906 116.503906 -143.703125 120.703125 -136.296875 C 124.898438 -128.898438 127 -120.46875 127 -111 L 127 -13.40625 C 127 -9.664062 125.734375 -6.492188 123.203125 -3.890625 C 120.671875 -1.296875 117.46875 0 113.59375 0 L 96.59375 0 C 92.863281 0 89.695312 -1.296875 87.09375 -3.890625 C 84.5 -6.492188 83.203125 -9.664062 83.203125 -13.40625 L 83.203125 -37.203125 C 83.203125 -40.796875 81.929688 -43.859375 79.390625 -46.390625 C 76.859375 -48.929688 73.726562 -50.203125 70 -50.203125 C 66.394531 -50.203125 63.328125 -48.929688 60.796875 -46.390625 C 58.265625 -43.859375 57 -40.726562 57 -37 L 57 -13.40625 C 57 -9.664062 55.734375 -6.492188 53.203125 -3.890625 C 50.671875 -1.296875 47.46875 0 43.59375 0 Z M 70 -76.59375 C 73.726562 -76.59375 76.859375 -77.859375 79.390625 -80.390625 C 81.929688 -82.929688 83.203125 -86 83.203125 -89.59375 L 83.203125 -110.59375 C 83.203125 -114.332031 81.929688 -117.46875 79.390625 -120 C 76.859375 -122.53125 73.726562 -123.796875 70 -123.796875 C 66.394531 -123.796875 63.328125 -122.53125 60.796875 -120 C 58.265625 -117.46875 57 -114.332031 57 -110.59375 L 57 -89.59375 C 57 -86 58.265625 -82.929688 60.796875 -80.390625 C 63.328125 -77.859375 66.394531 -76.59375 70 -76.59375 Z M 70 -76.59375 "/></g></g></g><g fill="#515389" fill-opacity="1"><g transform="translate(758.98961, 296.750021)"><g><path d="M 26.59375 0 C 22.863281 0 19.695312 -1.296875 17.09375 -3.890625 C 14.5 -6.492188 13.203125 -9.664062 13.203125 -13.40625 L 13.203125 -146.59375 C 13.203125 -150.46875 14.5 -153.671875 17.09375 -156.203125 C 19.695312 -158.734375 22.863281 -160 26.59375 -160 L 107.59375 -160 C 111.46875 -160 114.671875 -158.664062 117.203125 -156 C 119.734375 -153.332031 121 -150.132812 121 -146.40625 L 121 -49.40625 C 121 -45.664062 122.265625 -42.53125 124.796875 -40 C 127.328125 -37.46875 130.394531 -36.203125 134 -36.203125 C 137.726562 -36.203125 140.859375 -37.46875 143.390625 -40 C 145.929688 -42.53125 147.203125 -45.664062 147.203125 -49.40625 L 147.203125 -146.59375 C 147.203125 -150.46875 148.5 -153.671875 151.09375 -156.203125 C 153.695312 -158.734375 156.863281 -160 160.59375 -160 L 177.59375 -160 C 181.46875 -160 184.671875 -158.734375 187.203125 -156.203125 C 189.734375 -153.671875 191 -150.46875 191 -146.59375 L 191 -13.40625 C 191 -9.664062 189.734375 -6.492188 187.203125 -3.890625 C 184.671875 -1.296875 181.46875 0 177.59375 0 L 96.59375 0 C 92.863281 0 89.695312 -1.332031 87.09375 -4 C 84.5 -6.664062 83.203125 -9.863281 83.203125 -13.59375 L 83.203125 -110.796875 C 83.203125 -114.398438 81.929688 -117.46875 79.390625 -120 C 76.859375 -122.53125 73.726562 -123.796875 70 -123.796875 C 66.394531 -123.796875 63.328125 -122.53125 60.796875 -120 C 58.265625 -117.46875 57 -114.398438 57 -110.796875 L 57 -13.40625 C 57 -9.664062 55.734375 -6.492188 53.203125 -3.890625 C 50.671875 -1.296875 47.46875 0 43.59375 0 Z M 26.59375 0 "/></g></g></g><g fill="#515389" fill-opacity="1"><g transform="translate(963.184147, 296.750021)"><g><path d="M 62.203125 0 C 52.734375 0 44.296875 -2.097656 36.890625 -6.296875 C 29.492188 -10.492188 23.695312 -16.289062 19.5 -23.6875 C 15.300781 -31.09375 13.203125 -39.53125 13.203125 -49 L 13.203125 -111 C 13.203125 -120.46875 15.300781 -128.898438 19.5 -136.296875 C 23.695312 -143.703125 29.492188 -149.503906 36.890625 -153.703125 C 44.296875 -157.898438 52.734375 -160 62.203125 -160 L 113.59375 -160 C 117.46875 -160 120.671875 -158.734375 123.203125 -156.203125 C 125.734375 -153.671875 127 -150.46875 127 -146.59375 L 127 -137 C 127 -133.269531 125.695312 -130.132812 123.09375 -127.59375 C 120.5 -125.0625 117.332031 -123.796875 113.59375 -123.796875 L 70 -123.796875 C 66.394531 -123.796875 63.328125 -122.53125 60.796875 -120 C 58.265625 -117.46875 57 -114.332031 57 -110.59375 L 57 -49.40625 C 57 -45.664062 58.265625 -42.53125 60.796875 -40 C 63.328125 -37.46875 66.394531 -36.203125 70 -36.203125 C 73.601562 -36.203125 76.703125 -37.46875 79.296875 -40 C 81.898438 -42.53125 83.203125 -45.664062 83.203125 -49.40625 L 83.203125 -82.203125 C 83.203125 -86.203125 84.535156 -89.429688 87.203125 -91.890625 C 89.867188 -94.359375 93.066406 -95.59375 96.796875 -95.59375 L 113.796875 -95.59375 C 117.660156 -95.59375 120.828125 -94.289062 123.296875 -91.6875 C 125.765625 -89.09375 127 -85.863281 127 -82 L 127 -13.40625 C 127 -9.53125 125.695312 -6.328125 123.09375 -3.796875 C 120.5 -1.265625 117.332031 0 113.59375 0 Z M 62.203125 0 "/></g></g></g><g fill="#515389" fill-opacity="1"><g transform="translate(304.863278, 86.499999)"><g><path d="M 6.65625 0 C 5.71875 0 4.921875 -0.320312 4.265625 -0.96875 C 3.617188 -1.625 3.296875 -2.414062 3.296875 -3.34375 L 3.296875 -36.65625 C 3.296875 -37.613281 3.617188 -38.410156 4.265625 -39.046875 C 4.921875 -39.679688 5.71875 -40 6.65625 -40 L 10.90625 -40 C 11.863281 -40 12.660156 -39.679688 13.296875 -39.046875 C 13.929688 -38.410156 14.25 -37.613281 14.25 -36.65625 L 14.25 -27.703125 C 14.25 -26.765625 14.566406 -25.976562 15.203125 -25.34375 C 15.835938 -24.71875 16.601562 -24.40625 17.5 -24.40625 C 18.4375 -24.40625 19.21875 -24.71875 19.84375 -25.34375 C 20.476562 -25.976562 20.796875 -26.765625 20.796875 -27.703125 L 20.796875 -36.65625 C 20.796875 -37.613281 21.117188 -38.410156 21.765625 -39.046875 C 22.421875 -39.679688 23.21875 -40 24.15625 -40 L 28.40625 -40 C 29.363281 -40 30.160156 -39.679688 30.796875 -39.046875 C 31.429688 -38.410156 31.75 -37.613281 31.75 -36.65625 L 31.75 -3.34375 C 31.75 -2.414062 31.429688 -1.625 30.796875 -0.96875 C 30.160156 -0.320312 29.363281 0 28.40625 0 L 24.15625 0 C 23.21875 0 22.421875 -0.320312 21.765625 -0.96875 C 21.117188 -1.625 20.796875 -2.414062 20.796875 -3.34375 L 20.796875 -12.296875 C 20.796875 -13.234375 20.476562 -14.023438 19.84375 -14.671875 C 19.21875 -15.328125 18.4375 -15.65625 17.5 -15.65625 C 16.601562 -15.65625 15.835938 -15.335938 15.203125 -14.703125 C 14.566406 -14.066406 14.25 -13.28125 14.25 -12.34375 L 14.25 -3.34375 C 14.25 -2.414062 13.929688 -1.625 13.296875 -0.96875 C 12.660156 -0.320312 11.863281 0 10.90625 0 Z M 6.65625 0 "/></g></g></g><g fill="#515389" fill-opacity="1"><g transform="translate(339.907855, 86.499999)"><g><path d="M 6.65625 0 C 5.71875 0 4.921875 -0.320312 4.265625 -0.96875 C 3.617188 -1.625 3.296875 -2.414062 3.296875 -3.34375 L 3.296875 -36.65625 C 3.296875 -37.613281 3.617188 -38.410156 4.265625 -39.046875 C 4.921875 -39.679688 5.71875 -40 6.65625 -40 L 10.90625 -40 C 11.863281 -40 12.660156 -39.679688 13.296875 -39.046875 C 13.929688 -38.410156 14.25 -37.613281 14.25 -36.65625 L 14.25 -3.34375 C 14.25 -2.414062 13.929688 -1.625 13.296875 -0.96875 C 12.660156 -0.320312 11.863281 0 10.90625 0 Z M 6.65625 0 "/></g></g></g><g fill="#515389" fill-opacity="1"><g transform="translate(357.455137, 86.499999)"><g><path d="M 9.703125 8.75 C 8.835938 8.75 8.21875 8.484375 7.84375 7.953125 C 7.476562 7.421875 7.445312 6.738281 7.75 5.90625 L 8.65625 3.34375 C 8.945312 2.476562 8.859375 1.703125 8.390625 1.015625 C 7.929688 0.335938 7.25 0 6.34375 0 L 5.84375 0 C 5.113281 0 4.503906 -0.238281 4.015625 -0.71875 C 3.535156 -1.207031 3.296875 -1.816406 3.296875 -2.546875 L 3.296875 -9.953125 C 3.296875 -10.679688 3.535156 -11.285156 4.015625 -11.765625 C 4.503906 -12.253906 5.113281 -12.5 5.84375 -12.5 L 13.25 -12.5 C 13.976562 -12.5 14.582031 -12.253906 15.0625 -11.765625 C 15.550781 -11.285156 15.796875 -10.679688 15.796875 -9.953125 L 15.796875 -1.546875 C 15.796875 -0.453125 15.613281 0.578125 15.25 1.546875 L 13.34375 6.75 C 12.882812 8.082031 11.921875 8.75 10.453125 8.75 Z M 9.703125 8.75 "/></g></g></g><g fill="#515389" fill-opacity="1"><g transform="translate(376.552178, 86.499999)"><g/></g></g><g fill="#515389" fill-opacity="1"><g transform="translate(395.649219, 86.499999)"><g><path d="M 6.65625 0 C 5.71875 0 4.921875 -0.320312 4.265625 -0.96875 C 3.617188 -1.625 3.296875 -2.414062 3.296875 -3.34375 L 3.296875 -36.65625 C 3.296875 -37.613281 3.617188 -38.410156 4.265625 -39.046875 C 4.921875 -39.679688 5.71875 -40 6.65625 -40 L 19.65625 -40 C 20.613281 -40 21.410156 -39.679688 22.046875 -39.046875 C 22.679688 -38.410156 23 -37.613281 23 -36.65625 L 23 -35.796875 C 23 -34.898438 23.316406 -34.132812 23.953125 -33.5 C 24.585938 -32.863281 25.351562 -32.546875 26.25 -32.546875 C 27.1875 -32.546875 27.96875 -32.863281 28.59375 -33.5 C 29.226562 -34.132812 29.546875 -34.898438 29.546875 -35.796875 L 29.546875 -36.65625 C 29.546875 -37.613281 29.867188 -38.410156 30.515625 -39.046875 C 31.171875 -39.679688 31.96875 -40 32.90625 -40 L 45.90625 -40 C 46.863281 -40 47.660156 -39.679688 48.296875 -39.046875 C 48.929688 -38.410156 49.25 -37.613281 49.25 -36.65625 L 49.25 -3.34375 C 49.25 -2.414062 48.929688 -1.625 48.296875 -0.96875 C 47.660156 -0.320312 46.863281 0 45.90625 0 L 41.65625 0 C 40.71875 0 39.921875 -0.320312 39.265625 -0.96875 C 38.617188 -1.625 38.296875 -2.414062 38.296875 -3.34375 L 38.296875 -27.65625 C 38.296875 -28.582031 37.976562 -29.363281 37.34375 -30 C 36.71875 -30.632812 35.9375 -30.953125 35 -30.953125 C 34.101562 -30.953125 33.335938 -30.632812 32.703125 -30 C 32.066406 -29.363281 31.75 -28.582031 31.75 -27.65625 L 31.75 -3.453125 C 31.75 -2.515625 31.429688 -1.703125 30.796875 -1.015625 C 30.160156 -0.335938 29.363281 0 28.40625 0 L 24.15625 0 C 23.1875 0 22.382812 -0.332031 21.75 -1 C 21.113281 -1.664062 20.796875 -2.484375 20.796875 -3.453125 L 20.796875 -27.65625 C 20.796875 -28.582031 20.476562 -29.363281 19.84375 -30 C 19.21875 -30.632812 18.4375 -30.953125 17.5 -30.953125 C 16.601562 -30.953125 15.835938 -30.632812 15.203125 -30 C 14.566406 -29.363281 14.25 -28.582031 14.25 -27.65625 L 14.25 -3.34375 C 14.25 -2.414062 13.929688 -1.625 13.296875 -0.96875 C 12.660156 -0.320312 11.863281 0 10.90625 0 Z M 6.65625 0 "/></g></g></g><g fill="#515389" fill-opacity="1"><g transform="translate(448.19109, 86.499999)"><g><path d="M 15.453125 0 C 14.515625 0 13.71875 -0.320312 13.0625 -0.96875 C 12.414062 -1.625 12.09375 -2.414062 12.09375 -3.34375 L 12.09375 -14.75 C 12.09375 -15.644531 11.773438 -16.414062 11.140625 -17.0625 C 10.515625 -17.71875 9.734375 -18.046875 8.796875 -18.046875 L 6.65625 -18.046875 C 5.71875 -18.046875 4.921875 -18.367188 4.265625 -19.015625 C 3.617188 -19.671875 3.296875 -20.484375 3.296875 -21.453125 L 3.296875 -36.75 C 3.296875 -37.6875 3.617188 -38.460938 4.265625 -39.078125 C 4.921875 -39.691406 5.71875 -40 6.65625 -40 L 10.90625 -40 C 11.832031 -40 12.617188 -39.671875 13.265625 -39.015625 C 13.921875 -38.367188 14.25 -37.5625 14.25 -36.59375 L 14.25 -27.75 C 14.25 -26.8125 14.570312 -26.019531 15.21875 -25.375 C 15.875 -24.726562 16.648438 -24.40625 17.546875 -24.40625 C 18.484375 -24.40625 19.273438 -24.726562 19.921875 -25.375 C 20.578125 -26.019531 20.90625 -26.8125 20.90625 -27.75 L 20.90625 -36.59375 C 20.90625 -37.5625 21.226562 -38.367188 21.875 -39.015625 C 22.519531 -39.671875 23.3125 -40 24.25 -40 L 28.5 -40 C 29.394531 -40 30.175781 -39.691406 30.84375 -39.078125 C 31.507812 -38.460938 31.84375 -37.6875 31.84375 -36.75 L 31.84375 -21.453125 C 31.84375 -20.484375 31.523438 -19.671875 30.890625 -19.015625 C 30.265625 -18.367188 29.46875 -18.046875 28.5 -18.046875 L 26.296875 -18.046875 C 25.398438 -18.046875 24.632812 -17.726562 24 -17.09375 C 23.363281 -16.46875 23.046875 -15.6875 23.046875 -14.75 L 23.046875 -3.34375 C 23.046875 -2.414062 22.726562 -1.625 22.09375 -0.96875 C 21.46875 -0.320312 20.671875 0 19.703125 0 Z M 15.453125 0 "/></g></g></g><g fill="#515389" fill-opacity="1"><g transform="translate(483.335653, 86.499999)"><g/></g></g><g fill="#515389" fill-opacity="1"><g transform="translate(502.432694, 86.499999)"><g><path d="M 6.65625 0 C 5.71875 0 4.921875 -0.320312 4.265625 -0.96875 C 3.617188 -1.625 3.296875 -2.414062 3.296875 -3.34375 L 3.296875 -36.65625 C 3.296875 -37.613281 3.617188 -38.410156 4.265625 -39.046875 C 4.921875 -39.679688 5.71875 -40 6.65625 -40 L 26.90625 -40 C 27.863281 -40 28.660156 -39.664062 29.296875 -39 C 29.929688 -38.332031 30.25 -37.53125 30.25 -36.59375 L 30.25 -12.34375 C 30.25 -11.414062 30.566406 -10.632812 31.203125 -10 C 31.835938 -9.363281 32.601562 -9.046875 33.5 -9.046875 C 34.4375 -9.046875 35.21875 -9.363281 35.84375 -10 C 36.476562 -10.632812 36.796875 -11.414062 36.796875 -12.34375 L 36.796875 -36.65625 C 36.796875 -37.613281 37.117188 -38.410156 37.765625 -39.046875 C 38.421875 -39.679688 39.21875 -40 40.15625 -40 L 44.40625 -40 C 45.363281 -40 46.160156 -39.679688 46.796875 -39.046875 C 47.429688 -38.410156 47.75 -37.613281 47.75 -36.65625 L 47.75 -3.34375 C 47.75 -2.414062 47.429688 -1.625 46.796875 -0.96875 C 46.160156 -0.320312 45.363281 0 44.40625 0 L 24.15625 0 C 23.21875 0 22.421875 -0.332031 21.765625 -1 C 21.117188 -1.664062 20.796875 -2.46875 20.796875 -3.40625 L 20.796875 -27.703125 C 20.796875 -28.597656 20.476562 -29.363281 19.84375 -30 C 19.21875 -30.632812 18.4375 -30.953125 17.5 -30.953125 C 16.601562 -30.953125 15.835938 -30.632812 15.203125 -30 C 14.566406 -29.363281 14.25 -28.597656 14.25 -27.703125 L 14.25 -3.34375 C 14.25 -2.414062 13.929688 -1.625 13.296875 -0.96875 C 12.660156 -0.320312 11.863281 0 10.90625 0 Z M 6.65625 0 "/></g></g></g><g fill="#515389" fill-opacity="1"><g transform="translate(553.474805, 86.499999)"><g><path d="M 6.65625 0 C 5.71875 0 4.921875 -0.320312 4.265625 -0.96875 C 3.617188 -1.625 3.296875 -2.414062 3.296875 -3.34375 L 3.296875 -27.75 C 3.296875 -30.113281 3.820312 -32.21875 4.875 -34.0625 C 5.925781 -35.914062 7.375 -37.367188 9.21875 -38.421875 C 11.070312 -39.472656 13.179688 -40 15.546875 -40 L 19.5 -40 C 21.863281 -40 23.96875 -39.472656 25.8125 -38.421875 C 27.664062 -37.367188 29.117188 -35.914062 30.171875 -34.0625 C 31.222656 -32.21875 31.75 -30.113281 31.75 -27.75 L 31.75 -3.34375 C 31.75 -2.414062 31.429688 -1.625 30.796875 -0.96875 C 30.160156 -0.320312 29.363281 0 28.40625 0 L 24.15625 0 C 23.21875 0 22.421875 -0.320312 21.765625 -0.96875 C 21.117188 -1.625 20.796875 -2.414062 20.796875 -3.34375 L 20.796875 -9.296875 C 20.796875 -10.203125 20.476562 -10.96875 19.84375 -11.59375 C 19.21875 -12.226562 18.4375 -12.546875 17.5 -12.546875 C 16.601562 -12.546875 15.835938 -12.226562 15.203125 -11.59375 C 14.566406 -10.96875 14.25 -10.1875 14.25 -9.25 L 14.25 -3.34375 C 14.25 -2.414062 13.929688 -1.625 13.296875 -0.96875 C 12.660156 -0.320312 11.863281 0 10.90625 0 Z M 17.5 -19.15625 C 18.4375 -19.15625 19.21875 -19.46875 19.84375 -20.09375 C 20.476562 -20.726562 20.796875 -21.5 20.796875 -22.40625 L 20.796875 -27.65625 C 20.796875 -28.582031 20.476562 -29.363281 19.84375 -30 C 19.21875 -30.632812 18.4375 -30.953125 17.5 -30.953125 C 16.601562 -30.953125 15.835938 -30.632812 15.203125 -30 C 14.566406 -29.363281 14.25 -28.582031 14.25 -27.65625 L 14.25 -22.40625 C 14.25 -21.5 14.566406 -20.726562 15.203125 -20.09375 C 15.835938 -19.46875 16.601562 -19.15625 17.5 -19.15625 Z M 17.5 -19.15625 "/></g></g></g><g fill="#515389" fill-opacity="1"><g transform="translate(588.519381, 86.499999)"><g><path d="M 6.65625 0 C 5.71875 0 4.921875 -0.320312 4.265625 -0.96875 C 3.617188 -1.625 3.296875 -2.414062 3.296875 -3.34375 L 3.296875 -36.65625 C 3.296875 -37.613281 3.617188 -38.410156 4.265625 -39.046875 C 4.921875 -39.679688 5.71875 -40 6.65625 -40 L 19.65625 -40 C 20.613281 -40 21.410156 -39.679688 22.046875 -39.046875 C 22.679688 -38.410156 23 -37.613281 23 -36.65625 L 23 -35.796875 C 23 -34.898438 23.316406 -34.132812 23.953125 -33.5 C 24.585938 -32.863281 25.351562 -32.546875 26.25 -32.546875 C 27.1875 -32.546875 27.96875 -32.863281 28.59375 -33.5 C 29.226562 -34.132812 29.546875 -34.898438 29.546875 -35.796875 L 29.546875 -36.65625 C 29.546875 -37.613281 29.867188 -38.410156 30.515625 -39.046875 C 31.171875 -39.679688 31.96875 -40 32.90625 -40 L 45.90625 -40 C 46.863281 -40 47.660156 -39.679688 48.296875 -39.046875 C 48.929688 -38.410156 49.25 -37.613281 49.25 -36.65625 L 49.25 -3.34375 C 49.25 -2.414062 48.929688 -1.625 48.296875 -0.96875 C 47.660156 -0.320312 46.863281 0 45.90625 0 L 41.65625 0 C 40.71875 0 39.921875 -0.320312 39.265625 -0.96875 C 38.617188 -1.625 38.296875 -2.414062 38.296875 -3.34375 L 38.296875 -27.65625 C 38.296875 -28.582031 37.976562 -29.363281 37.34375 -30 C 36.71875 -30.632812 35.9375 -30.953125 35 -30.953125 C 34.101562 -30.953125 33.335938 -30.632812 32.703125 -30 C 32.066406 -29.363281 31.75 -28.582031 31.75 -27.65625 L 31.75 -3.453125 C 31.75 -2.515625 31.429688 -1.703125 30.796875 -1.015625 C 30.160156 -0.335938 29.363281 0 28.40625 0 L 24.15625 0 C 23.1875 0 22.382812 -0.332031 21.75 -1 C 21.113281 -1.664062 20.796875 -2.484375 20.796875 -3.453125 L 20.796875 -27.65625 C 20.796875 -28.582031 20.476562 -29.363281 19.84375 -30 C 19.21875 -30.632812 18.4375 -30.953125 17.5 -30.953125 C 16.601562 -30.953125 15.835938 -30.632812 15.203125 -30 C 14.566406 -29.363281 14.25 -28.582031 14.25 -27.65625 L 14.25 -3.34375 C 14.25 -2.414062 13.929688 -1.625 13.296875 -0.96875 C 12.660156 -0.320312 11.863281 0 10.90625 0 Z M 6.65625 0 "/></g></g></g><g fill="#515389" fill-opacity="1"><g transform="translate(641.061241, 86.499999)"><g><path d="M 6.65625 0 C 5.71875 0 4.921875 -0.320312 4.265625 -0.96875 C 3.617188 -1.625 3.296875 -2.414062 3.296875 -3.34375 L 3.296875 -36.65625 C 3.296875 -37.613281 3.617188 -38.410156 4.265625 -39.046875 C 4.921875 -39.679688 5.71875 -40 6.65625 -40 L 35.953125 -40 C 36.921875 -40 37.71875 -39.679688 38.34375 -39.046875 C 38.976562 -38.410156 39.296875 -37.613281 39.296875 -36.65625 L 39.296875 -34.296875 C 39.296875 -33.367188 38.976562 -32.578125 38.34375 -31.921875 C 37.71875 -31.273438 36.921875 -30.953125 35.953125 -30.953125 L 17.5 -30.953125 C 16.601562 -30.953125 15.835938 -30.632812 15.203125 -30 C 14.566406 -29.363281 14.25 -28.582031 14.25 -27.65625 C 14.25 -26.75 14.566406 -25.976562 15.203125 -25.34375 C 15.835938 -24.71875 16.601562 -24.40625 17.5 -24.40625 L 33.953125 -24.40625 C 34.921875 -24.40625 35.71875 -24.085938 36.34375 -23.453125 C 36.976562 -22.816406 37.296875 -22.015625 37.296875 -21.046875 L 37.296875 -19.046875 C 37.296875 -18.078125 36.96875 -17.269531 36.3125 -16.625 C 35.664062 -15.976562 34.878906 -15.65625 33.953125 -15.65625 L 17.5 -15.65625 C 16.601562 -15.65625 15.835938 -15.328125 15.203125 -14.671875 C 14.566406 -14.023438 14.25 -13.25 14.25 -12.34375 C 14.25 -11.414062 14.566406 -10.632812 15.203125 -10 C 15.835938 -9.363281 16.601562 -9.046875 17.5 -9.046875 L 35.953125 -9.046875 C 36.921875 -9.046875 37.71875 -8.726562 38.34375 -8.09375 C 38.976562 -7.46875 39.296875 -6.671875 39.296875 -5.703125 L 39.296875 -3.34375 C 39.296875 -2.414062 38.976562 -1.625 38.34375 -0.96875 C 37.71875 -0.320312 36.921875 0 35.953125 0 Z M 6.65625 0 "/></g></g></g><g fill="#515389" fill-opacity="1"><g transform="translate(683.654637, 86.499999)"><g/></g></g><g fill="#515389" fill-opacity="1"><g transform="translate(702.751667, 86.499999)"><g><path d="M 6.65625 0 C 5.71875 0 4.921875 -0.320312 4.265625 -0.96875 C 3.617188 -1.625 3.296875 -2.414062 3.296875 -3.34375 L 3.296875 -36.65625 C 3.296875 -37.613281 3.617188 -38.410156 4.265625 -39.046875 C 4.921875 -39.679688 5.71875 -40 6.65625 -40 L 10.90625 -40 C 11.863281 -40 12.660156 -39.679688 13.296875 -39.046875 C 13.929688 -38.410156 14.25 -37.613281 14.25 -36.65625 L 14.25 -3.34375 C 14.25 -2.414062 13.929688 -1.625 13.296875 -0.96875 C 12.660156 -0.320312 11.863281 0 10.90625 0 Z M 6.65625 0 "/></g></g></g><g fill="#515389" fill-opacity="1"><g transform="translate(720.298937, 86.499999)"><g><path d="M 6.65625 0 C 5.71875 0 4.921875 -0.320312 4.265625 -0.96875 C 3.617188 -1.625 3.296875 -2.414062 3.296875 -3.34375 L 3.296875 -5.703125 C 3.296875 -6.671875 3.617188 -7.46875 4.265625 -8.09375 C 4.921875 -8.726562 5.71875 -9.046875 6.65625 -9.046875 L 25 -9.046875 C 25.9375 -9.046875 26.71875 -9.363281 27.34375 -10 C 27.976562 -10.632812 28.296875 -11.414062 28.296875 -12.34375 C 28.296875 -13.25 27.976562 -14.023438 27.34375 -14.671875 C 26.71875 -15.328125 25.9375 -15.65625 25 -15.65625 L 15.046875 -15.65625 C 12.785156 -15.65625 10.769531 -16.160156 9 -17.171875 C 7.226562 -18.191406 5.832031 -19.582031 4.8125 -21.34375 C 3.800781 -23.113281 3.296875 -25.132812 3.296875 -27.40625 L 3.296875 -28.25 C 3.296875 -30.519531 3.800781 -32.535156 4.8125 -34.296875 C 5.832031 -36.066406 7.226562 -37.457031 9 -38.46875 C 10.769531 -39.488281 12.785156 -40 15.046875 -40 L 35.90625 -40 C 36.863281 -40 37.660156 -39.679688 38.296875 -39.046875 C 38.929688 -38.410156 39.25 -37.613281 39.25 -36.65625 L 39.25 -34.296875 C 39.25 -33.367188 38.929688 -32.578125 38.296875 -31.921875 C 37.660156 -31.273438 36.863281 -30.953125 35.90625 -30.953125 L 17.5 -30.953125 C 16.601562 -30.953125 15.835938 -30.632812 15.203125 -30 C 14.566406 -29.363281 14.25 -28.582031 14.25 -27.65625 C 14.25 -26.75 14.566406 -25.976562 15.203125 -25.34375 C 15.835938 -24.71875 16.601562 -24.40625 17.5 -24.40625 L 27.5 -24.40625 C 29.769531 -24.40625 31.785156 -23.894531 33.546875 -22.875 C 35.316406 -21.851562 36.707031 -20.457031 37.71875 -18.6875 C 38.738281 -16.925781 39.25 -14.914062 39.25 -12.65625 L 39.25 -11.75 C 39.25 -9.476562 38.738281 -7.457031 37.71875 -5.6875 C 36.707031 -3.925781 35.316406 -2.535156 33.546875 -1.515625 C 31.785156 -0.503906 29.769531 0 27.5 0 Z M 6.65625 0 "/></g></g></g><g fill="#515389" fill-opacity="1"><g transform="translate(762.842345, 86.499999)"><g><path d="M 5.796875 0 C 4.128906 0 3.296875 -0.832031 3.296875 -2.5 L 3.296875 -10 C 3.296875 -11.664062 4.128906 -12.5 5.796875 -12.5 L 13.296875 -12.5 C 14.960938 -12.5 15.796875 -11.664062 15.796875 -10 L 15.796875 -2.5 C 15.796875 -0.832031 14.960938 0 13.296875 0 Z M 5.796875 0 "/></g></g></g><g fill="#515389" fill-opacity="1"><g transform="translate(781.939375, 86.499999)"><g><path d="M 5.796875 0 C 4.128906 0 3.296875 -0.832031 3.296875 -2.5 L 3.296875 -10 C 3.296875 -11.664062 4.128906 -12.5 5.796875 -12.5 L 13.296875 -12.5 C 14.960938 -12.5 15.796875 -11.664062 15.796875 -10 L 15.796875 -2.5 C 15.796875 -0.832031 14.960938 0 13.296875 0 Z M 5.796875 0 "/></g></g></g><g fill="#515389" fill-opacity="1"><g transform="translate(801.036405, 86.499999)"><g><path d="M 5.796875 0 C 4.128906 0 3.296875 -0.832031 3.296875 -2.5 L 3.296875 -10 C 3.296875 -11.664062 4.128906 -12.5 5.796875 -12.5 L 13.296875 -12.5 C 14.960938 -12.5 15.796875 -11.664062 15.796875 -10 L 15.796875 -2.5 C 15.796875 -0.832031 14.960938 0 13.296875 0 Z M 5.796875 0 "/></g></g></g></svg>