<svg xmlns="http://www.w3.org/2000/svg" xmlns:xlink="http://www.w3.org/1999/xlink" width="500" zoomAndPan="magnify" viewBox="0 0 375 374.999991" height="500" preserveAspectRatio="xMidYMid meet" version="1.0"><defs><g/></defs><path stroke-linecap="butt" transform="matrix(1.795742, 0, 0, 1.795742, 0.0000045, 65.389551)" fill="none" stroke-linejoin="miter" d="M 8.868634 59.999303 C 7.622195 59.999303 6.565007 59.566422 5.697068 58.698483 C 4.82913 57.830544 4.394073 56.777707 4.394073 55.53997 L 4.394073 23.008585 C 4.394073 19.850072 5.094514 17.041779 6.493223 14.577182 C 7.894106 12.103883 9.823584 10.167879 12.288181 8.769171 C 14.76148 7.368288 17.576299 6.667846 20.732637 6.667846 L 25.9903 6.667846 C 29.146639 6.667846 31.957106 7.368288 34.419529 8.769171 C 36.895003 10.167879 38.831006 12.103883 40.229715 14.577182 C 41.630598 17.041779 42.328864 19.850072 42.328864 23.008585 L 42.328864 55.53997 C 42.328864 56.777707 41.906859 57.830544 41.060673 58.698483 C 40.214488 59.566422 39.150773 59.999303 37.869531 59.999303 L 32.189862 59.999303 C 30.9543 59.999303 29.901462 59.566422 29.033524 58.698483 C 28.165585 57.830544 27.730528 56.777707 27.730528 55.53997 L 27.730528 47.598005 C 27.730528 46.405949 27.308523 45.38574 26.462337 44.539554 C 25.616151 43.693369 24.57419 43.269188 23.336453 43.269188 C 22.13352 43.269188 21.108961 43.693369 20.2606 44.539554 C 19.414414 45.38574 18.992409 46.427702 18.992409 47.663263 L 18.992409 55.53997 C 18.992409 56.777707 18.568229 57.830544 17.722043 58.698483 C 16.886733 59.566422 15.825194 59.999303 14.533075 59.999303 Z M 23.336453 34.46581 C 24.57419 34.46581 25.616151 34.048156 26.462337 33.212846 C 27.308523 32.366661 27.730528 31.339926 27.730528 30.136994 L 27.730528 23.139103 C 27.730528 21.890489 27.308523 20.848528 26.462337 20.013218 C 25.616151 19.167032 24.57419 18.745027 23.336453 18.745027 C 22.13352 18.745027 21.108961 19.167032 20.2606 20.013218 C 19.414414 20.848528 18.992409 21.890489 18.992409 23.139103 L 18.992409 30.136994 C 18.992409 31.339926 19.414414 32.366661 20.2606 33.212846 C 21.108961 34.048156 22.13352 34.46581 23.336453 34.46581 Z M 55.595926 59.999303 C 54.347313 59.999303 53.290124 59.566422 52.422186 58.698483 C 51.554247 57.830544 51.11919 56.777707 51.11919 55.53997 L 51.11919 11.144582 C 51.11919 9.852463 51.554247 8.784398 52.422186 7.938212 C 53.290124 7.092027 54.347313 6.667846 55.595926 6.667846 L 85.458236 6.667846 C 88.072928 6.667846 90.400483 7.259524 92.4409 8.442878 C 94.492194 9.615357 96.101905 11.225068 97.274383 13.276361 C 98.457738 15.316778 99.049415 17.648684 99.049415 20.274252 L 99.049415 24.342035 C 99.049415 25.67766 98.614359 26.778354 97.74642 27.646293 C 96.889358 28.503355 95.793014 28.931886 94.459565 28.931886 L 94.329047 28.931886 C 93.12394 28.931886 92.099381 29.356066 91.253195 30.202252 C 90.407009 31.048438 89.982828 32.09475 89.982828 33.343364 C 89.982828 34.578925 90.407009 35.620887 91.253195 36.467072 C 92.099381 37.313258 93.12394 37.737439 94.329047 37.737439 L 94.914199 37.737439 C 96.119307 37.737439 97.106886 38.115938 97.876937 38.875113 C 98.657864 39.623411 99.049415 40.600114 99.049415 41.805221 L 99.049415 55.53997 C 99.049415 56.777707 98.625235 57.830544 97.779049 58.698483 C 96.94374 59.566422 95.880026 59.999303 94.590082 59.999303 L 88.92564 59.999303 C 87.677027 59.999303 86.619838 59.566422 85.7519 58.698483 C 84.883961 57.830544 84.451079 56.777707 84.451079 55.53997 L 84.451079 43.464964 C 84.451079 42.270732 84.026899 41.252699 83.180713 40.406513 C 82.345404 39.560327 81.303442 39.136147 80.057004 39.136147 L 70.063746 39.136147 C 68.858638 39.136147 67.834079 39.560327 66.987893 40.406513 C 66.141707 41.252699 65.717527 42.270732 65.717527 43.464964 L 65.717527 55.53997 C 65.717527 56.777707 65.295521 57.830544 64.449335 58.698483 C 63.614026 59.566422 62.550312 59.999303 61.258193 59.999303 Z M 70.063746 27.467919 L 80.057004 27.467919 C 81.303442 27.467919 82.345404 27.050265 83.180713 26.214955 C 84.026899 25.368769 84.451079 24.342035 84.451079 23.139103 C 84.451079 21.890489 84.026899 20.848528 83.180713 20.013218 C 82.345404 19.167032 81.303442 18.745027 80.057004 18.745027 L 70.063746 18.745027 C 68.858638 18.745027 67.834079 19.167032 66.987893 20.013218 C 66.141707 20.848528 65.717527 21.890489 65.717527 23.139103 C 65.717527 24.342035 66.141707 25.368769 66.987893 26.214955 C 67.834079 27.050265 68.858638 27.467919 70.063746 27.467919 Z M 112.320828 59.999303 C 111.072215 59.999303 110.015026 59.566422 109.147088 58.698483 C 108.279149 57.830544 107.844092 56.777707 107.844092 55.53997 L 107.844092 11.144582 C 107.844092 9.852463 108.279149 8.784398 109.147088 7.938212 C 110.015026 7.092027 111.072215 6.667846 112.320828 6.667846 L 117.983094 6.667846 C 119.275214 6.667846 120.338928 7.092027 121.174237 7.938212 C 122.020423 8.784398 122.442428 9.852463 122.442428 11.144582 L 122.442428 55.53997 C 122.442428 56.777707 122.020423 57.830544 121.174237 58.698483 C 120.338928 59.566422 119.275214 59.999303 117.983094 59.999303 Z M 112.320828 59.999303 " stroke="#807900" stroke-width="6.91667" stroke-opacity="1" stroke-miterlimit="4"/><path stroke-linecap="butt" transform="matrix(1.795742, 0, 0, 1.795742, 0.0000045, 65.389551)" fill="none" stroke-linejoin="miter" d="M 8.868634 128.000882 C 7.622195 128.000882 6.565007 127.565825 5.697068 126.697886 C 4.82913 125.829947 4.394073 124.777109 4.394073 123.541548 L 4.394073 79.143985 C 4.394073 77.854041 4.82913 76.783801 5.697068 75.937615 C 6.565007 75.091429 7.622195 74.669424 8.868634 74.669424 L 25.9903 74.669424 C 29.146639 74.669424 31.957106 75.367691 34.419529 76.768574 C 36.895003 78.167282 38.831006 80.105461 40.229715 82.57876 C 41.630598 85.041182 42.328864 87.85165 42.328864 91.007988 L 42.328864 111.660142 C 42.328864 114.818656 41.630598 117.633474 40.229715 120.106773 C 38.831006 122.569195 36.895003 124.500848 34.419529 125.899556 C 31.957106 127.30044 29.146639 128.000882 25.9903 128.000882 Z M 23.336453 115.941103 C 24.57419 115.941103 25.616151 115.516922 26.462337 114.670736 C 27.308523 113.82455 27.730528 112.778238 27.730528 111.529625 L 27.730528 91.138505 C 27.730528 89.889892 27.308523 88.850106 26.462337 88.014796 C 25.616151 87.166435 24.57419 86.74443 23.336453 86.74443 C 22.13352 86.74443 21.108961 87.166435 20.2606 88.014796 C 19.414414 88.850106 18.992409 89.889892 18.992409 91.138505 L 18.992409 111.529625 C 18.992409 112.778238 19.414414 113.82455 20.2606 114.670736 C 21.108961 115.516922 22.13352 115.941103 23.336453 115.941103 Z M 55.595926 128.000882 C 54.347313 128.000882 53.290124 127.565825 52.422186 126.697886 C 51.554247 125.829947 51.11919 124.777109 51.11919 123.541548 L 51.11919 91.007988 C 51.11919 87.85165 51.819632 85.041182 53.220515 82.57876 C 54.619223 80.105461 56.550876 78.167282 59.013299 76.768574 C 61.486598 75.367691 64.301416 74.669424 67.45993 74.669424 L 72.715418 74.669424 C 75.873931 74.669424 78.684399 75.367691 81.146822 76.768574 C 83.62012 78.167282 85.556124 80.105461 86.957007 82.57876 C 88.355715 85.041182 89.056157 87.85165 89.056157 91.007988 L 89.056157 123.541548 C 89.056157 124.777109 88.631977 125.829947 87.785791 126.697886 C 86.939605 127.565825 85.875891 128.000882 84.596823 128.000882 L 78.917155 128.000882 C 77.679418 128.000882 76.62658 127.565825 75.758641 126.697886 C 74.890703 125.829947 74.457821 124.777109 74.457821 123.541548 L 74.457821 115.599583 C 74.457821 114.405352 74.03364 113.385143 73.187455 112.538957 C 72.341269 111.692771 71.301483 111.270766 70.063746 111.270766 C 68.858638 111.270766 67.834079 111.692771 66.987893 112.538957 C 66.141707 113.385143 65.717527 114.427104 65.717527 115.664841 L 65.717527 123.541548 C 65.717527 124.777109 65.295521 125.829947 64.449335 126.697886 C 63.614026 127.565825 62.550312 128.000882 61.258193 128.000882 Z M 70.063746 102.465213 C 71.301483 102.465213 72.341269 102.047559 73.187455 101.212249 C 74.03364 100.366063 74.457821 99.341504 74.457821 98.136397 L 74.457821 91.138505 C 74.457821 89.889892 74.03364 88.850106 73.187455 88.014796 C 72.341269 87.166435 71.301483 86.74443 70.063746 86.74443 C 68.858638 86.74443 67.834079 87.166435 66.987893 88.014796 C 66.141707 88.850106 65.717527 89.889892 65.717527 91.138505 L 65.717527 98.136397 C 65.717527 99.341504 66.141707 100.366063 66.987893 101.212249 C 67.834079 102.047559 68.858638 102.465213 70.063746 102.465213 Z M 102.321044 128.000882 C 101.074606 128.000882 100.015242 127.565825 99.147303 126.697886 C 98.279365 125.829947 97.846483 124.777109 97.846483 123.541548 L 97.846483 79.143985 C 97.846483 77.854041 98.279365 76.783801 99.147303 75.937615 C 100.015242 75.091429 101.074606 74.669424 102.321044 74.669424 L 129.320679 74.669424 C 130.601921 74.669424 131.66346 75.113182 132.511822 76.002874 C 133.358007 76.892565 133.780013 77.96063 133.780013 79.209243 L 133.780013 111.529625 C 133.780013 112.778238 134.204193 113.82455 135.050379 114.670736 C 135.896565 115.516922 136.916773 115.941103 138.108829 115.941103 C 139.357443 115.941103 140.403755 115.516922 141.249941 114.670736 C 142.096126 113.82455 142.520307 112.778238 142.520307 111.529625 L 142.520307 79.143985 C 142.520307 77.854041 142.948838 76.783801 143.8059 75.937615 C 144.673839 75.091429 145.731027 74.669424 146.979641 74.669424 L 152.641907 74.669424 C 153.934026 74.669424 155.002091 75.091429 155.848277 75.937615 C 156.694463 76.783801 157.118643 77.854041 157.118643 79.143985 L 157.118643 123.541548 C 157.118643 124.777109 156.694463 125.829947 155.848277 126.697886 C 155.002091 127.565825 153.934026 128.000882 152.641907 128.000882 L 125.642272 128.000882 C 124.40671 128.000882 123.353873 127.554948 122.485934 126.665257 C 121.617995 125.775565 121.182938 124.7075 121.182938 123.458887 L 121.182938 91.073247 C 121.182938 89.868139 120.760933 88.850106 119.914747 88.014796 C 119.068561 87.166435 118.0266 86.74443 116.788863 86.74443 C 115.585931 86.74443 114.559196 87.166435 113.71301 88.014796 C 112.866825 88.850106 112.444819 89.868139 112.444819 91.073247 L 112.444819 123.541548 C 112.444819 124.777109 112.020639 125.829947 111.174453 126.697886 C 110.339144 127.565825 109.275429 128.000882 107.985485 128.000882 Z M 182.241007 128.000882 C 179.084669 128.000882 176.269851 127.30044 173.796552 125.899556 C 171.331954 124.500848 169.402476 122.569195 168.001593 120.106773 C 166.602885 117.633474 165.902443 114.818656 165.902443 111.660142 L 165.902443 91.007988 C 165.902443 87.85165 166.602885 85.041182 168.001593 82.57876 C 169.402476 80.105461 171.331954 78.167282 173.796552 76.768574 C 176.269851 75.367691 179.084669 74.669424 182.241007 74.669424 L 199.377901 74.669424 C 200.659144 74.669424 201.722858 75.091429 202.569044 75.937615 C 203.41523 76.783801 203.837235 77.854041 203.837235 79.143985 L 203.837235 82.332952 C 203.837235 83.581566 203.404353 84.627878 202.536414 85.474064 C 201.668476 86.320249 200.615638 86.74443 199.377901 86.74443 L 184.844823 86.74443 C 183.641891 86.74443 182.617332 87.166435 181.768971 88.014796 C 180.922785 88.850106 180.500779 89.889892 180.500779 91.138505 L 180.500779 111.529625 C 180.500779 112.778238 180.922785 113.82455 181.768971 114.670736 C 182.617332 115.516922 183.641891 115.941103 184.844823 115.941103 C 186.039055 115.941103 187.07014 115.516922 187.938078 114.670736 C 188.806017 113.82455 189.238899 112.778238 189.238899 111.529625 L 189.238899 100.609695 C 189.238899 99.276246 189.684832 98.195129 190.574523 97.370696 C 191.464215 96.546263 192.527929 96.135135 193.763491 96.135135 L 199.443159 96.135135 C 200.724402 96.135135 201.77724 96.568016 202.601673 97.435955 C 203.426106 98.303893 203.837235 99.38501 203.837235 100.674954 L 203.837235 123.541548 C 203.837235 124.820615 203.404353 125.884329 202.536414 126.730515 C 201.668476 127.576701 200.615638 128.000882 199.377901 128.000882 Z M 182.241007 128.000882 " stroke="#807900" stroke-width="6.91667" stroke-opacity="1" stroke-miterlimit="4"/><g fill="#fff42c" fill-opacity="1"><g transform="translate(0.0000045, 173.134063)"><g><path d="M 15.921875 0 C 13.679688 0 11.785156 -0.773438 10.234375 -2.328125 C 8.679688 -3.890625 7.90625 -5.785156 7.90625 -8.015625 L 7.90625 -66.4375 C 7.90625 -72.101562 9.160156 -77.148438 11.671875 -81.578125 C 14.179688 -86.003906 17.648438 -89.472656 22.078125 -91.984375 C 26.515625 -94.503906 31.566406 -95.765625 37.234375 -95.765625 L 46.6875 -95.765625 C 52.351562 -95.765625 57.398438 -94.503906 61.828125 -91.984375 C 66.253906 -89.472656 69.722656 -86.003906 72.234375 -81.578125 C 74.753906 -77.148438 76.015625 -72.101562 76.015625 -66.4375 L 76.015625 -8.015625 C 76.015625 -5.785156 75.253906 -3.890625 73.734375 -2.328125 C 72.222656 -0.773438 70.304688 0 67.984375 0 L 57.8125 0 C 55.582031 0 53.6875 -0.773438 52.125 -2.328125 C 50.570312 -3.890625 49.796875 -5.785156 49.796875 -8.015625 L 49.796875 -22.265625 C 49.796875 -24.421875 49.035156 -26.253906 47.515625 -27.765625 C 46.003906 -29.285156 44.128906 -30.046875 41.890625 -30.046875 C 39.742188 -30.046875 37.910156 -29.285156 36.390625 -27.765625 C 34.867188 -26.253906 34.109375 -24.378906 34.109375 -22.140625 L 34.109375 -8.015625 C 34.109375 -5.785156 33.347656 -3.890625 31.828125 -2.328125 C 30.316406 -0.773438 28.40625 0 26.09375 0 Z M 41.890625 -45.84375 C 44.128906 -45.84375 46.003906 -46.597656 47.515625 -48.109375 C 49.035156 -49.628906 49.796875 -51.46875 49.796875 -53.625 L 49.796875 -66.203125 C 49.796875 -68.429688 49.035156 -70.300781 47.515625 -71.8125 C 46.003906 -73.332031 44.128906 -74.09375 41.890625 -74.09375 C 39.742188 -74.09375 37.910156 -73.332031 36.390625 -71.8125 C 34.867188 -70.300781 34.109375 -68.429688 34.109375 -66.203125 L 34.109375 -53.625 C 34.109375 -51.46875 34.867188 -49.628906 36.390625 -48.109375 C 37.910156 -46.597656 39.742188 -45.84375 41.890625 -45.84375 Z M 41.890625 -45.84375 "/></g></g></g><g fill="#fff42c" fill-opacity="1"><g transform="translate(83.908028, 173.134063)"><g><path d="M 15.921875 0 C 13.679688 0 11.785156 -0.773438 10.234375 -2.328125 C 8.679688 -3.890625 7.90625 -5.785156 7.90625 -8.015625 L 7.90625 -87.75 C 7.90625 -90.0625 8.679688 -91.972656 10.234375 -93.484375 C 11.785156 -95.003906 13.679688 -95.765625 15.921875 -95.765625 L 69.546875 -95.765625 C 74.253906 -95.765625 78.441406 -94.707031 82.109375 -92.59375 C 85.785156 -90.476562 88.679688 -87.582031 90.796875 -83.90625 C 92.910156 -80.238281 93.96875 -76.050781 93.96875 -71.34375 L 93.96875 -64.046875 C 93.96875 -61.648438 93.1875 -59.671875 91.625 -58.109375 C 90.070312 -56.554688 88.097656 -55.78125 85.703125 -55.78125 L 85.46875 -55.78125 C 83.3125 -55.78125 81.472656 -55.019531 79.953125 -53.5 C 78.441406 -51.988281 77.6875 -50.113281 77.6875 -47.875 C 77.6875 -45.644531 78.441406 -43.769531 79.953125 -42.25 C 81.472656 -40.738281 83.3125 -39.984375 85.46875 -39.984375 L 86.546875 -39.984375 C 88.703125 -39.984375 90.476562 -39.300781 91.875 -37.9375 C 93.269531 -36.582031 93.96875 -34.828125 93.96875 -32.671875 L 93.96875 -8.015625 C 93.96875 -5.785156 93.207031 -3.890625 91.6875 -2.328125 C 90.175781 -0.773438 88.265625 0 85.953125 0 L 75.765625 0 C 73.535156 0 71.640625 -0.773438 70.078125 -2.328125 C 68.523438 -3.890625 67.75 -5.785156 67.75 -8.015625 L 67.75 -29.6875 C 67.75 -31.84375 66.988281 -33.675781 65.46875 -35.1875 C 63.957031 -36.707031 62.082031 -37.46875 59.84375 -37.46875 L 41.890625 -37.46875 C 39.742188 -37.46875 37.910156 -36.707031 36.390625 -35.1875 C 34.867188 -33.675781 34.109375 -31.84375 34.109375 -29.6875 L 34.109375 -8.015625 C 34.109375 -5.785156 33.347656 -3.890625 31.828125 -2.328125 C 30.316406 -0.773438 28.40625 0 26.09375 0 Z M 41.890625 -58.421875 L 59.84375 -58.421875 C 62.082031 -58.421875 63.957031 -59.175781 65.46875 -60.6875 C 66.988281 -62.207031 67.75 -64.046875 67.75 -66.203125 C 67.75 -68.429688 66.988281 -70.300781 65.46875 -71.8125 C 63.957031 -73.332031 62.082031 -74.09375 59.84375 -74.09375 L 41.890625 -74.09375 C 39.742188 -74.09375 37.910156 -73.332031 36.390625 -71.8125 C 34.867188 -70.300781 34.109375 -68.429688 34.109375 -66.203125 C 34.109375 -64.046875 34.867188 -62.207031 36.390625 -60.6875 C 37.910156 -59.175781 39.742188 -58.421875 41.890625 -58.421875 Z M 41.890625 -58.421875 "/></g></g></g><g fill="#fff42c" fill-opacity="1"><g transform="translate(185.770674, 173.134063)"><g><path d="M 15.921875 0 C 13.679688 0 11.785156 -0.773438 10.234375 -2.328125 C 8.679688 -3.890625 7.90625 -5.785156 7.90625 -8.015625 L 7.90625 -87.75 C 7.90625 -90.0625 8.679688 -91.972656 10.234375 -93.484375 C 11.785156 -95.003906 13.679688 -95.765625 15.921875 -95.765625 L 26.09375 -95.765625 C 28.40625 -95.765625 30.316406 -95.003906 31.828125 -93.484375 C 33.347656 -91.972656 34.109375 -90.0625 34.109375 -87.75 L 34.109375 -8.015625 C 34.109375 -5.785156 33.347656 -3.890625 31.828125 -2.328125 C 30.316406 -0.773438 28.40625 0 26.09375 0 Z M 15.921875 0 "/></g></g></g><g fill="#fff42c" fill-opacity="1"><g transform="translate(0.0000045, 295.244511)"><g><path d="M 15.921875 0 C 13.679688 0 11.785156 -0.773438 10.234375 -2.328125 C 8.679688 -3.890625 7.90625 -5.785156 7.90625 -8.015625 L 7.90625 -87.75 C 7.90625 -90.0625 8.679688 -91.972656 10.234375 -93.484375 C 11.785156 -95.003906 13.679688 -95.765625 15.921875 -95.765625 L 46.6875 -95.765625 C 52.351562 -95.765625 57.398438 -94.503906 61.828125 -91.984375 C 66.253906 -89.472656 69.722656 -86.003906 72.234375 -81.578125 C 74.753906 -77.148438 76.015625 -72.101562 76.015625 -66.4375 L 76.015625 -29.328125 C 76.015625 -23.660156 74.753906 -18.613281 72.234375 -14.1875 C 69.722656 -9.757812 66.253906 -6.285156 61.828125 -3.765625 C 57.398438 -1.253906 52.351562 0 46.6875 0 Z M 41.890625 -21.671875 C 44.128906 -21.671875 46.003906 -22.425781 47.515625 -23.9375 C 49.035156 -25.457031 49.796875 -27.332031 49.796875 -29.5625 L 49.796875 -66.203125 C 49.796875 -68.429688 49.035156 -70.300781 47.515625 -71.8125 C 46.003906 -73.332031 44.128906 -74.09375 41.890625 -74.09375 C 39.742188 -74.09375 37.910156 -73.332031 36.390625 -71.8125 C 34.867188 -70.300781 34.109375 -68.429688 34.109375 -66.203125 L 34.109375 -29.5625 C 34.109375 -27.332031 34.867188 -25.457031 36.390625 -23.9375 C 37.910156 -22.425781 39.742188 -21.671875 41.890625 -21.671875 Z M 41.890625 -21.671875 "/></g></g></g><g fill="#fff42c" fill-opacity="1"><g transform="translate(83.908028, 295.244511)"><g><path d="M 15.921875 0 C 13.679688 0 11.785156 -0.773438 10.234375 -2.328125 C 8.679688 -3.890625 7.90625 -5.785156 7.90625 -8.015625 L 7.90625 -66.4375 C 7.90625 -72.101562 9.160156 -77.148438 11.671875 -81.578125 C 14.179688 -86.003906 17.648438 -89.472656 22.078125 -91.984375 C 26.515625 -94.503906 31.566406 -95.765625 37.234375 -95.765625 L 46.6875 -95.765625 C 52.351562 -95.765625 57.398438 -94.503906 61.828125 -91.984375 C 66.253906 -89.472656 69.722656 -86.003906 72.234375 -81.578125 C 74.753906 -77.148438 76.015625 -72.101562 76.015625 -66.4375 L 76.015625 -8.015625 C 76.015625 -5.785156 75.253906 -3.890625 73.734375 -2.328125 C 72.222656 -0.773438 70.304688 0 67.984375 0 L 57.8125 0 C 55.582031 0 53.6875 -0.773438 52.125 -2.328125 C 50.570312 -3.890625 49.796875 -5.785156 49.796875 -8.015625 L 49.796875 -22.265625 C 49.796875 -24.421875 49.035156 -26.253906 47.515625 -27.765625 C 46.003906 -29.285156 44.128906 -30.046875 41.890625 -30.046875 C 39.742188 -30.046875 37.910156 -29.285156 36.390625 -27.765625 C 34.867188 -26.253906 34.109375 -24.378906 34.109375 -22.140625 L 34.109375 -8.015625 C 34.109375 -5.785156 33.347656 -3.890625 31.828125 -2.328125 C 30.316406 -0.773438 28.40625 0 26.09375 0 Z M 41.890625 -45.84375 C 44.128906 -45.84375 46.003906 -46.597656 47.515625 -48.109375 C 49.035156 -49.628906 49.796875 -51.46875 49.796875 -53.625 L 49.796875 -66.203125 C 49.796875 -68.429688 49.035156 -70.300781 47.515625 -71.8125 C 46.003906 -73.332031 44.128906 -74.09375 41.890625 -74.09375 C 39.742188 -74.09375 37.910156 -73.332031 36.390625 -71.8125 C 34.867188 -70.300781 34.109375 -68.429688 34.109375 -66.203125 L 34.109375 -53.625 C 34.109375 -51.46875 34.867188 -49.628906 36.390625 -48.109375 C 37.910156 -46.597656 39.742188 -45.84375 41.890625 -45.84375 Z M 41.890625 -45.84375 "/></g></g></g><g fill="#fff42c" fill-opacity="1"><g transform="translate(167.816051, 295.244511)"><g><path d="M 15.921875 0 C 13.679688 0 11.785156 -0.773438 10.234375 -2.328125 C 8.679688 -3.890625 7.90625 -5.785156 7.90625 -8.015625 L 7.90625 -87.75 C 7.90625 -90.0625 8.679688 -91.972656 10.234375 -93.484375 C 11.785156 -95.003906 13.679688 -95.765625 15.921875 -95.765625 L 64.40625 -95.765625 C 66.71875 -95.765625 68.628906 -94.960938 70.140625 -93.359375 C 71.660156 -91.765625 72.421875 -89.851562 72.421875 -87.625 L 72.421875 -29.5625 C 72.421875 -27.332031 73.175781 -25.457031 74.6875 -23.9375 C 76.207031 -22.425781 78.046875 -21.671875 80.203125 -21.671875 C 82.429688 -21.671875 84.300781 -22.425781 85.8125 -23.9375 C 87.332031 -25.457031 88.09375 -27.332031 88.09375 -29.5625 L 88.09375 -87.75 C 88.09375 -90.0625 88.867188 -91.972656 90.421875 -93.484375 C 91.984375 -95.003906 93.882812 -95.765625 96.125 -95.765625 L 106.296875 -95.765625 C 108.609375 -95.765625 110.519531 -95.003906 112.03125 -93.484375 C 113.550781 -91.972656 114.3125 -90.0625 114.3125 -87.75 L 114.3125 -8.015625 C 114.3125 -5.785156 113.550781 -3.890625 112.03125 -2.328125 C 110.519531 -0.773438 108.609375 0 106.296875 0 L 57.8125 0 C 55.582031 0 53.6875 -0.796875 52.125 -2.390625 C 50.570312 -3.984375 49.796875 -5.898438 49.796875 -8.140625 L 49.796875 -66.3125 C 49.796875 -68.46875 49.035156 -70.300781 47.515625 -71.8125 C 46.003906 -73.332031 44.128906 -74.09375 41.890625 -74.09375 C 39.742188 -74.09375 37.910156 -73.332031 36.390625 -71.8125 C 34.867188 -70.300781 34.109375 -68.46875 34.109375 -66.3125 L 34.109375 -8.015625 C 34.109375 -5.785156 33.347656 -3.890625 31.828125 -2.328125 C 30.316406 -0.773438 28.40625 0 26.09375 0 Z M 15.921875 0 "/></g></g></g><g fill="#fff42c" fill-opacity="1"><g transform="translate(290.027306, 295.244511)"><g><path d="M 37.234375 0 C 31.566406 0 26.515625 -1.253906 22.078125 -3.765625 C 17.648438 -6.285156 14.179688 -9.757812 11.671875 -14.1875 C 9.160156 -18.613281 7.90625 -23.660156 7.90625 -29.328125 L 7.90625 -66.4375 C 7.90625 -72.101562 9.160156 -77.148438 11.671875 -81.578125 C 14.179688 -86.003906 17.648438 -89.472656 22.078125 -91.984375 C 26.515625 -94.503906 31.566406 -95.765625 37.234375 -95.765625 L 67.984375 -95.765625 C 70.304688 -95.765625 72.222656 -95.003906 73.734375 -93.484375 C 75.253906 -91.972656 76.015625 -90.0625 76.015625 -87.75 L 76.015625 -82 C 76.015625 -79.757812 75.234375 -77.878906 73.671875 -76.359375 C 72.117188 -74.847656 70.222656 -74.09375 67.984375 -74.09375 L 41.890625 -74.09375 C 39.742188 -74.09375 37.910156 -73.332031 36.390625 -71.8125 C 34.867188 -70.300781 34.109375 -68.429688 34.109375 -66.203125 L 34.109375 -29.5625 C 34.109375 -27.332031 34.867188 -25.457031 36.390625 -23.9375 C 37.910156 -22.425781 39.742188 -21.671875 41.890625 -21.671875 C 44.046875 -21.671875 45.898438 -22.425781 47.453125 -23.9375 C 49.015625 -25.457031 49.796875 -27.332031 49.796875 -29.5625 L 49.796875 -49.203125 C 49.796875 -51.585938 50.59375 -53.519531 52.1875 -55 C 53.78125 -56.476562 55.695312 -57.21875 57.9375 -57.21875 L 68.109375 -57.21875 C 70.421875 -57.21875 72.316406 -56.4375 73.796875 -54.875 C 75.273438 -53.320312 76.015625 -51.390625 76.015625 -49.078125 L 76.015625 -8.015625 C 76.015625 -5.703125 75.234375 -3.785156 73.671875 -2.265625 C 72.117188 -0.753906 70.222656 0 67.984375 0 Z M 37.234375 0 "/></g></g></g></svg>